<svg id="Layer_1" data-name="Layer 1" xmlns="http://www.w3.org/2000/svg" viewBox="0 0 700 300"><defs><style>.cls-1{fill:#333745;}.cls-2{fill:#83a0a0;}</style></defs><title>abril</title><rect class="cls-1" width="700" height="300"/><path class="cls-2" d="M157.48,153.65h1.4c.22,3.24,2.84,4.68,5.4,4.68,2.27,0,3.6-1.08,3.6-3.13,0-2.45-2.12-2.88-4.43-3.31-2.7-.54-5.61-1.08-5.61-5a5.59,5.59,0,0,1,5.86-5.48,6.93,6.93,0,0,1,3.46.83,1.31,1.31,0,0,0,.65.22c.43,0,.57-.4.61-1.05h1.19V147H168.2c-.68-2.66-2.16-4-4.53-4-1.87,0-3.28,1.12-3.28,2.66,0,2.06,2,2.45,4.36,2.92,2.73.54,5.72,1.26,5.72,5.47,0,3.31-2,6-6.05,6a8.71,8.71,0,0,1-4.71-1.34,1.08,1.08,0,0,0-.43-.14c-.29,0-.47.25-.58,1.48h-1.22Z"/><path class="cls-2" d="M178.75,132.7v10l-.14,2.27h.14a6.68,6.68,0,0,1,6.08-3.57c3.82,0,5.48,1.91,5.48,6.12V158l2.37.25v1.44h-8.17v-1.44l2.38-.25V147.57c0-2.38-.54-3.74-3.32-3.74a4.58,4.58,0,0,0-4.78,4.93V158l2.45.25v1.44h-8.43v-1.44l2.56-.25V134.58l-2.56-.26v-1.4Z"/><path class="cls-2" d="M204.53,158.26v1.44h-9.65v-1.44l2.34-.25V143.54l-2.34-.25v-1.41l5.18-.21.26,3.13h.14c1-1.87,2.52-3.39,5.18-3.39a3.36,3.36,0,0,1,3.67,3.35c0,2-1,2.81-2.52,2.81a2.16,2.16,0,0,1-2.3-2.45l1.15-.47a1.55,1.55,0,0,0,.07-.43c0-.65-.54-.86-1.18-.86-1.91,0-3.89,2.48-3.89,4.57V158Z"/><path class="cls-2" d="M217.13,141.67V158l2.73.25v1.44H211v-1.44l2.7-.25V143.54l-2.7-.25v-1.41ZM215,133.46a2.2,2.2,0,1,1-2.23,2.23A2,2,0,0,1,215,133.46Z"/><path class="cls-2" d="M227.21,141.67l.18,3.38h.14a6.64,6.64,0,0,1,6.12-3.64c2.77,0,4.32,1.16,4.86,3.6a6.72,6.72,0,0,1,5.94-3.6c3.81,0,5.29,1.91,5.29,6.12V158l2.37.25v1.44h-8.17v-1.44l2.38-.25V147.57c0-2.38-.36-3.74-3.13-3.74-2.27,0-4.43,1.58-4.43,5V158l2.38.25v1.44H233v-1.44l2.37-.25V147.57c0-2.38-.36-3.74-3.13-3.74a4.37,4.37,0,0,0-4.43,4.64V158l2.45.25v1.44H222v-1.44l2.34-.25V143.54l-2.34-.25v-1.41Z"/><path class="cls-2" d="M259.43,141.67l.14,3.16h.18a6.81,6.81,0,0,1,6.08-3.42c4.43,0,6.84,3.1,6.84,9.18,0,6.27-3.24,9.51-7.59,9.51a7.76,7.76,0,0,1-5-1.51v6.55l4.39.32v1.44H254.28v-1.44l2.34-.25V143.54l-2.34-.25v-1.41Zm1.54,3.74a4.84,4.84,0,0,0-.93,3v5.47a4.2,4.2,0,0,0,4.5,4.43c3.2,0,4.32-2.6,4.32-7.42,0-4.61-.83-7.23-4.18-7.23A4.71,4.71,0,0,0,261,145.41Z"/><path class="cls-2" d="M293.23,150.27v-2.45c0-3.13-.76-4.89-3.6-4.89-1.08,0-3,.14-3,1.51a2.23,2.23,0,0,0,.07.47h1.18a5.63,5.63,0,0,1,.22,1.29,1.85,1.85,0,0,1-2.05,1.91,2,2,0,0,1-2.09-2.23c0-2.63,2.67-4.47,6.23-4.47,4.5,0,6.48,1.77,6.48,6.81v8.21c0,1.54.25,2,1.11,2a3.46,3.46,0,0,0,1.19-.22l.33,1.23a5.86,5.86,0,0,1-2.63.61c-1.87,0-2.95-.68-3.24-2.55a6.23,6.23,0,0,1-5.29,2.59c-2.77,0-5-1.23-5-4.61,0-3.92,3.2-5.22,7.66-5.22Zm0,4.5v-3h-2c-3.27,0-4.35,1.37-4.35,3.49,0,1.8.65,2.85,2.55,2.85S293.23,157,293.23,154.77Z"/><path class="cls-2" d="M306.37,141.63l.25,3.42h.11a7.06,7.06,0,0,1,6.3-3.64c3.81,0,5.47,1.91,5.47,6.12V158l2.38.25v1.44H312.7v-1.44l2.38-.25V147.57c0-2.38-.54-3.74-3.31-3.74A4.49,4.49,0,0,0,307,148.4V158l2.45.25v1.44h-8.21v-1.44l2.34-.25V143.54l-2.34-.25v-1.41Z"/><path class="cls-2" d="M339.45,158l2.52.25v1.44h-5.61l-.29-2.7a6.31,6.31,0,0,1-5.73,3.1c-4.71,0-7-3.57-7-9,0-6.12,3-9.69,7.71-9.69a6.39,6.39,0,0,1,5,2v-8.81l-2.88-.29v-1.37l6.3-.22ZM336,153.33v-6a3.85,3.85,0,0,0-1.11-2.88,4.3,4.3,0,0,0-3.17-1.22c-3.6,0-4.65,2.95-4.65,7.49,0,3.56.65,7.16,4.29,7.16A4.59,4.59,0,0,0,336,153.33Z"/><path class="cls-2" d="M365.91,140.62a2.53,2.53,0,0,1,1.12.25v2l-3.39.5a5.83,5.83,0,0,1,1.84,4.4c0,4.1-3,6.47-6.73,6.47a9,9,0,0,1-2.05-.21c-1.16,1-1.7,1.62-1.7,2.12,0,.69.47.76,1.48.76h3.38c4.14,0,7.24.61,7.24,4.68,0,3.6-2.27,5.69-9.11,5.69-5.47,0-7.31-1.55-7.31-3.89a4.13,4.13,0,0,1,2.49-3.71,2.08,2.08,0,0,1-1.26-2c0-1.62,1.44-2.63,3.2-4.14a5.37,5.37,0,0,1-3.45-5.4c0-3.56,2.34-6.77,7.09-6.77a6.91,6.91,0,0,1,3.85,1A4.85,4.85,0,0,1,365.91,140.62Zm-11.52,19.66a4,4,0,0,0-.9,2.44c0,1.7.83,2.74,5.37,2.74,3.52,0,5.61-.72,5.61-3,0-1.95-1.8-2.16-5.15-2.16Zm4.32-7.71c1.84,0,3.35-1.15,3.35-4.86,0-3.52-1.37-4.71-3.38-4.71s-3.53,1.26-3.53,4.79S356.59,152.57,358.71,152.57Z"/><path class="cls-2" d="M378.94,158.26v1.44H369.3v-1.44l2.34-.25V143.54l-2.34-.25v-1.41l5.18-.21.25,3.13h.15c1-1.87,2.52-3.39,5.18-3.39a3.36,3.36,0,0,1,3.67,3.35c0,2-1,2.81-2.52,2.81a2.16,2.16,0,0,1-2.3-2.45l1.15-.47a2,2,0,0,0,.07-.43c0-.65-.54-.86-1.19-.86-1.9,0-3.88,2.48-3.88,4.57V158Z"/><path class="cls-2" d="M391.54,141.67V158l2.74.25v1.44h-8.86v-1.44l2.7-.25V143.54l-2.7-.25v-1.41Zm-2.12-8.21a2.2,2.2,0,1,1-2.23,2.23A2,2,0,0,1,389.42,133.46Z"/><path class="cls-2" d="M398.78,143.57h-2.7v-1.76h2.7v-4.64l2.59-.72h.83v5.36h4v1.76h-4v11.7c0,2,.47,2.77,1.87,2.77s2.16-.64,2.77-2.84l1.37.36c-.72,3.06-2.16,4.54-5.22,4.54-2.59,0-4.21-1.26-4.21-4.25Z"/><path class="cls-2" d="M410.62,153.65H412c.21,3.24,2.84,4.68,5.4,4.68,2.26,0,3.6-1.08,3.6-3.13,0-2.45-2.13-2.88-4.43-3.31-2.7-.54-5.62-1.08-5.62-5a5.6,5.6,0,0,1,5.87-5.48,7,7,0,0,1,3.46.83,1.28,1.28,0,0,0,.64.22c.44,0,.58-.4.62-1.05h1.18V147h-1.4c-.68-2.66-2.16-4-4.54-4-1.87,0-3.27,1.12-3.27,2.66,0,2.06,2,2.45,4.35,2.92,2.74.54,5.73,1.26,5.73,5.47,0,3.31-2,6-6.05,6a8.68,8.68,0,0,1-4.71-1.34,1.08,1.08,0,0,0-.44-.14c-.28,0-.46.25-.57,1.48h-1.23Z"/><path class="cls-2" d="M442.66,145.37a72.37,72.37,0,0,0,7.27,8.89,17.59,17.59,0,0,0,2.13-7.37l-2.95-.26v-1.4h7.34v1.4l-2.49.29a21.65,21.65,0,0,1-2.84,8.5c1.48,1.36,2.56,1.91,3.6,1.91s2-.47,2.16-3.6l1.4.14c-.07,5.4-2.52,6.23-4.28,6.23a6.45,6.45,0,0,1-4.53-1.7l-.54-.43a9.72,9.72,0,0,1-6.38,2.13c-4.06,0-8.6-2.06-8.6-6.84,0-3.78,2.2-5.91,4.9-7.49a10.71,10.71,0,0,1-1.41-4.79c0-4.1,3.06-6.48,6.77-6.48,3.24,0,5,1.84,5,4.29C449.21,142.1,446.73,143.43,442.66,145.37Zm4.93,11.41a56.11,56.11,0,0,1-7.95-9.64,5.78,5.78,0,0,0-2.13,4.68,5.87,5.87,0,0,0,6.16,6.12A6.74,6.74,0,0,0,447.59,156.78ZM442,144.22c3.53-1.8,4.57-3.31,4.57-5.36a2.3,2.3,0,0,0-2.52-2.48,3.22,3.22,0,0,0-3.35,3.45A9,9,0,0,0,442,144.22Z"/><path class="cls-2" d="M478.48,150.27v-2.45c0-3.13-.75-4.89-3.6-4.89-1.08,0-3,.14-3,1.51a2.23,2.23,0,0,0,.07.47h1.19a5.59,5.59,0,0,1,.21,1.29,1.85,1.85,0,0,1-2.05,1.91,2,2,0,0,1-2.09-2.23c0-2.63,2.67-4.47,6.23-4.47,4.5,0,6.48,1.77,6.48,6.81v8.21c0,1.54.25,2,1.12,2a3.45,3.45,0,0,0,1.18-.22l.33,1.23a5.83,5.83,0,0,1-2.63.61c-1.87,0-2.95-.68-3.24-2.55a6.22,6.22,0,0,1-5.29,2.59c-2.77,0-5-1.23-5-4.61,0-3.92,3.2-5.22,7.67-5.22Zm0,4.5v-3h-2c-3.28,0-4.36,1.37-4.36,3.49,0,1.8.65,2.85,2.56,2.85A3.56,3.56,0,0,0,478.48,154.77Z"/><path class="cls-2" d="M491.37,144.44a6.53,6.53,0,0,1,5.79-3c4.43,0,6.84,3.1,6.84,9.18,0,6.27-3.13,9.51-7.95,9.51a7.87,7.87,0,0,1-5.69-2l-1.4,1.94h-1V134.54l-2.34-.25v-1.37l5.76-.22Zm.94,1a4.6,4.6,0,0,0-.94,3v5.33a4.51,4.51,0,0,0,4.57,4.57c3.35,0,4.25-2.6,4.25-7.42,0-4.61-.83-7.23-4.18-7.23A4.55,4.55,0,0,0,492.31,145.41Z"/><path class="cls-2" d="M516.53,158.26v1.44h-9.64v-1.44l2.34-.25V143.54l-2.34-.25v-1.41l5.18-.21.25,3.13h.15c1-1.87,2.51-3.39,5.18-3.39a3.36,3.36,0,0,1,3.67,3.35c0,2-1,2.81-2.52,2.81a2.16,2.16,0,0,1-2.3-2.45l1.15-.47a2,2,0,0,0,.07-.43c0-.65-.54-.86-1.19-.86-1.91,0-3.89,2.48-3.89,4.57V158Z"/><path class="cls-2" d="M529.13,141.67V158l2.74.25v1.44H523v-1.44l2.7-.25V143.54l-2.7-.25v-1.41ZM527,133.46a2.2,2.2,0,1,1,0,4.39,2,2,0,0,1-2.26-2.16A2,2,0,0,1,527,133.46Z"/><path class="cls-2" d="M539.79,132.7V158l2.73.25v1.44h-8.71v-1.44l2.56-.25V134.58l-2.56-.26v-1.4Z"/></svg>