<svg id="Layer_1" data-name="Layer 1" xmlns="http://www.w3.org/2000/svg" viewBox="0 0 700 300"><defs><style>.cls-1{fill:#333745;}.cls-2{fill:#83a0a0;}</style></defs><title>alegreya</title><rect class="cls-1" width="700" height="300"/><path class="cls-2" d="M128.89,157.27a8,8,0,0,1-2-5.79,10,10,0,0,1,1.1-4.67,8.55,8.55,0,0,1,3-3.31,7.73,7.73,0,0,1,4.23-1.2,12.22,12.22,0,0,1,1.94.14,15,15,0,0,1,1.53.31,4.44,4.44,0,0,1,.74.23l.11.25c0,.12-.09.4-.2.85s-.22,1-.34,1.76a17.06,17.06,0,0,0-.22,2.36l-1.48.11v-1.12a2.78,2.78,0,0,0-3-2.95,4,4,0,0,0-3.38,1.57,7.22,7.22,0,0,0-1.19,4.44A8.33,8.33,0,0,0,131,155.2a4.2,4.2,0,0,0,3.59,1.82,6.24,6.24,0,0,0,1.8-.27,13.32,13.32,0,0,0,1.51-.54,4.62,4.62,0,0,0,.75-.38l.22.07.4,1.12-1.1.76a16.52,16.52,0,0,1-1.95,1.11,4.42,4.42,0,0,1-1.89.54A7.19,7.19,0,0,1,128.89,157.27Z"/><path class="cls-2" d="M141.92,158a3.37,3.37,0,0,0,1.43-.72,1.91,1.91,0,0,0,.5-1.05,16,16,0,0,0,.09-2.05V136.46a3.1,3.1,0,0,0-.25-1.51,1.17,1.17,0,0,0-1.05-.39c-.12,0-.39,0-.82.07l-.11-.07.14-1.23a46.74,46.74,0,0,0,5.33-1l.22.46c-.27.41-.5,3-.71,7.71s-.3,9.73-.3,15a3,3,0,0,0,.29,1.55,1,1,0,0,0,1,.47l1.26-.07.07.14-.29,1.55c-1.58-.07-2.65-.11-3.2-.11a23.6,23.6,0,0,0-3.71.43Z"/><path class="cls-2" d="M159.78,156.52l-.14,0a20.2,20.2,0,0,1-2.36,2.05,3.26,3.26,0,0,1-1.6.76,4.57,4.57,0,0,1-3.32-1.26,4.29,4.29,0,0,1-1.29-3.21,3.24,3.24,0,0,1,.52-1.83,2.45,2.45,0,0,1,1.39-1.05l6.84-1.87,0-1.58a4.26,4.26,0,0,0-.83-2.81,2.86,2.86,0,0,0-2.34-1,5.51,5.51,0,0,0-2.12.47,9.29,9.29,0,0,0-2.2,1.33l-.18-.11-.43-1.54c1.13-.65,2.26-1.23,3.4-1.75a7,7,0,0,1,2.47-.77,5.2,5.2,0,0,1,3.67,1.22,4.42,4.42,0,0,1,1.33,3.42c0,.53-.08,1.61-.25,3.24q-.39,4-.39,5a1.74,1.74,0,0,0,.39,1.22,1.41,1.41,0,0,0,1.08.44,2.93,2.93,0,0,0,1.19-.27,3.32,3.32,0,0,0,1-.63l.51.57a9.52,9.52,0,0,1-1.39,1.75,4.4,4.4,0,0,1-1.75,1.13A2.88,2.88,0,0,1,159.78,156.52Zm-1.89-.17a6.65,6.65,0,0,0,1.67-1.24l.18-3.67-4.89,1.48a1.41,1.41,0,0,0-1,1.51,2.33,2.33,0,0,0,.71,1.73,2.45,2.45,0,0,0,1.78.68A3.48,3.48,0,0,0,157.89,156.35Z"/><path class="cls-2" d="M170.42,159.27a10.83,10.83,0,0,1-1.5-.34,5.23,5.23,0,0,1-.68-.26l-.11-.25c.07-.36.16-1.1.25-2.23s.16-2,.18-2.59l1.26-.18a5.39,5.39,0,0,0,.8,3.35,3.26,3.26,0,0,0,2.69,1,4.12,4.12,0,0,0,2.31-.61,1.79,1.79,0,0,0,.94-1.51,2.17,2.17,0,0,0-.85-1.64,20.29,20.29,0,0,0-3.33-2.07,10,10,0,0,1-3-2.13,3.55,3.55,0,0,1-.93-2.37,4.26,4.26,0,0,1,.86-2.61A5.85,5.85,0,0,1,171.7,143a8.32,8.32,0,0,1,3.38-.66,11,11,0,0,1,1.65.12c.53.09,1,.18,1.3.27l.65.18.07.18c-.05.24-.16.79-.32,1.64a22.1,22.1,0,0,0-.36,2.75l-1.34.11c0-.07,0-.22,0-.43a4.45,4.45,0,0,0,0-.61,2.32,2.32,0,0,0-.71-1.89,3.4,3.4,0,0,0-2.25-.6,3.59,3.59,0,0,0-2.06.58,1.66,1.66,0,0,0-.85,1.4,2.29,2.29,0,0,0,.74,1.62,9.37,9.37,0,0,0,2.39,1.62,18.45,18.45,0,0,1,4,2.61,3.34,3.34,0,0,1,1.06,2.43,4.14,4.14,0,0,1-.9,2.56,6.28,6.28,0,0,1-2.43,1.89,7.67,7.67,0,0,1-3.26.7A12.28,12.28,0,0,1,170.42,159.27Z"/><path class="cls-2" d="M184.89,159.27a10.3,10.3,0,0,1-1.49-.34,5.62,5.62,0,0,1-.69-.26l-.11-.25c.07-.36.16-1.1.25-2.23s.16-2,.18-2.59l1.27-.18a5.4,5.4,0,0,0,.79,3.35,3.27,3.27,0,0,0,2.7,1,4.09,4.09,0,0,0,2.3-.61,1.77,1.77,0,0,0,.94-1.51,2.17,2.17,0,0,0-.85-1.64,20.29,20.29,0,0,0-3.33-2.07,10,10,0,0,1-3-2.13,3.55,3.55,0,0,1-.93-2.37,4.32,4.32,0,0,1,.86-2.61,5.85,5.85,0,0,1,2.38-1.84,8.32,8.32,0,0,1,3.38-.66,11.08,11.08,0,0,1,1.66.12c.52.09,1,.18,1.29.27l.65.18.07.18c-.05.24-.15.79-.32,1.64a22.1,22.1,0,0,0-.36,2.75l-1.33.11c0-.07,0-.22,0-.43a4.45,4.45,0,0,0,0-.61,2.32,2.32,0,0,0-.7-1.89,3.44,3.44,0,0,0-2.25-.6,3.61,3.61,0,0,0-2.07.58,1.66,1.66,0,0,0-.85,1.4,2.29,2.29,0,0,0,.74,1.62,9.37,9.37,0,0,0,2.39,1.62,18.45,18.45,0,0,1,4,2.61,3.34,3.34,0,0,1,1.06,2.43,4.14,4.14,0,0,1-.9,2.56,6.28,6.28,0,0,1-2.43,1.89,7.67,7.67,0,0,1-3.26.7A12.37,12.37,0,0,1,184.89,159.27Z"/><path class="cls-2" d="M197,158a3.08,3.08,0,0,0,1.55-.85,2.25,2.25,0,0,0,.47-1.49v-9.15c0-1.3-.45-1.94-1.34-1.94a3.5,3.5,0,0,0-.54.05l-.36.09.15-1.33c1-.14,2-.34,3.11-.58l2.07-.46.18.43a20.91,20.91,0,0,0-.58,4.62c-.16,2.58-.25,5.29-.25,8.12a3.11,3.11,0,0,0,.29,1.53,1,1,0,0,0,1,.49,6.12,6.12,0,0,0,.76,0l.5,0,.07.14-.28,1.55c-.22,0-.63-.05-1.23-.07s-1.26,0-2,0a14.67,14.67,0,0,0-2.14.18c-.8.12-1.33.2-1.56.25Zm1.73-20.45a1.88,1.88,0,0,1-.47-1.3,2.06,2.06,0,0,1,.61-1.49,2,2,0,0,1,1.51-.63,1.63,1.63,0,0,1,1.3.54,1.92,1.92,0,0,1,.47,1.29,2.08,2.08,0,0,1-.62,1.5,2,2,0,0,1-1.51.63A1.61,1.61,0,0,1,198.77,137.51Z"/><path class="cls-2" d="M208.81,157.27a8,8,0,0,1-2.05-5.79,9.87,9.87,0,0,1,1.1-4.67,8.53,8.53,0,0,1,3-3.31,7.73,7.73,0,0,1,4.23-1.2,12.35,12.35,0,0,1,2,.14,15,15,0,0,1,1.53.31,4.81,4.81,0,0,1,.74.23l.11.25c0,.12-.1.4-.2.85s-.23,1-.35,1.76a17.11,17.11,0,0,0-.21,2.36l-1.48.11v-1.12a2.78,2.78,0,0,0-2.95-2.95,4,4,0,0,0-3.38,1.57,7.15,7.15,0,0,0-1.19,4.44A8.33,8.33,0,0,0,211,155.2a4.2,4.2,0,0,0,3.58,1.82,6.24,6.24,0,0,0,1.8-.27,13.55,13.55,0,0,0,1.52-.54,5.15,5.15,0,0,0,.75-.38l.22.07.39,1.12-1.09.76a17.37,17.37,0,0,1-2,1.11,4.42,4.42,0,0,1-1.89.54A7.19,7.19,0,0,1,208.81,157.27Z"/><path class="cls-2" d="M231.9,159.27a11,11,0,0,1-1.49-.34,5.23,5.23,0,0,1-.68-.26l-.11-.25c.07-.36.15-1.1.25-2.23s.16-2,.18-2.59l1.26-.18a5.4,5.4,0,0,0,.79,3.35,3.3,3.3,0,0,0,2.7,1,4.14,4.14,0,0,0,2.31-.61,1.78,1.78,0,0,0,.93-1.51,2.16,2.16,0,0,0-.84-1.64,21.25,21.25,0,0,0-3.33-2.07,9.89,9.89,0,0,1-3-2.13,3.52,3.52,0,0,1-.94-2.37,4.27,4.27,0,0,1,.87-2.61,5.75,5.75,0,0,1,2.37-1.84,8.4,8.4,0,0,1,3.39-.66,11,11,0,0,1,1.65.12c.53.09,1,.18,1.3.27l.65.18.07.18-.33,1.64a26.64,26.64,0,0,0-.36,2.75l-1.33.11a3.46,3.46,0,0,1,0-.43c0-.22,0-.42,0-.61a2.32,2.32,0,0,0-.7-1.89,3.44,3.44,0,0,0-2.25-.6,3.65,3.65,0,0,0-2.07.58,1.67,1.67,0,0,0-.84,1.4,2.28,2.28,0,0,0,.73,1.62,9.46,9.46,0,0,0,2.4,1.62,18.72,18.72,0,0,1,4,2.61,3.38,3.38,0,0,1,1.06,2.43,4.14,4.14,0,0,1-.9,2.56,6.28,6.28,0,0,1-2.43,1.89,7.7,7.7,0,0,1-3.26.7A12.49,12.49,0,0,1,231.9,159.27Z"/><path class="cls-2" d="M246.29,158.44a4.56,4.56,0,0,1-1-3.36v-8.86a1.84,1.84,0,0,0-.43-1.37,2.58,2.58,0,0,0-1.62-.43l-.15-.22.18-1.08a12.09,12.09,0,0,0,2-1.24c.66-.49,1.2-.92,1.62-1.3s.69-.61.81-.73l.72.29c0,.12-.06.4-.11.86s-.11,1.07-.18,1.83l5.29-.1.11.1-.33,1.91-5.22-.1c-.16,2.64-.25,5.64-.25,9a4.11,4.11,0,0,0,.63,2.59,2.72,2.72,0,0,0,2.18.75,4,4,0,0,0,1.08-.14,6.19,6.19,0,0,0,.9-.31l.47-.2.36.94c-.15.12-.45.35-.92.69s-1,.66-1.51,1a2.77,2.77,0,0,1-1.21.48A4.84,4.84,0,0,1,246.29,158.44Z"/><path class="cls-2" d="M259.1,158.44a6.63,6.63,0,0,1-2.66-2.81,8.84,8.84,0,0,1-.94-4.15,9.79,9.79,0,0,1,1.1-4.54,9,9,0,0,1,2.93-3.38,6.82,6.82,0,0,1,3.93-1.26,5.48,5.48,0,0,1,4,1.33,5.19,5.19,0,0,1,1.37,3.89,6,6,0,0,1-.22,1.76l-.46.43H258.2a8.66,8.66,0,0,0,1.39,5.38,4.67,4.67,0,0,0,4,1.89,10.49,10.49,0,0,0,4.4-1.11l.21.07.4,1a18.11,18.11,0,0,1-2.86,1.69,6.32,6.32,0,0,1-2.65.76A7.81,7.81,0,0,1,259.1,158.44Zm5.76-10.38a1.3,1.3,0,0,0,.72-.26,1,1,0,0,0,.18-.72,2.93,2.93,0,0,0-.77-2.19,3,3,0,0,0-2.22-.76,4.07,4.07,0,0,0-2.89,1.15,5.29,5.29,0,0,0-1.53,3.1Z"/><path class="cls-2" d="M280.52,156.52l-.14,0a19.41,19.41,0,0,1-2.36,2.05,3.26,3.26,0,0,1-1.6.76A4.57,4.57,0,0,1,273.1,158a4.29,4.29,0,0,1-1.29-3.21,3.24,3.24,0,0,1,.52-1.83,2.45,2.45,0,0,1,1.39-1.05l6.84-1.87,0-1.58a4.32,4.32,0,0,0-.82-2.81,2.89,2.89,0,0,0-2.35-1,5.51,5.51,0,0,0-2.12.47,9.49,9.49,0,0,0-2.2,1.33l-.18-.11-.43-1.54c1.13-.65,2.26-1.23,3.41-1.75a6.9,6.9,0,0,1,2.46-.77,5.18,5.18,0,0,1,3.67,1.22,4.42,4.42,0,0,1,1.34,3.42c0,.53-.09,1.61-.26,3.24q-.39,4-.39,5a1.74,1.74,0,0,0,.39,1.22,1.41,1.41,0,0,0,1.08.44,2.93,2.93,0,0,0,1.19-.27,3.32,3.32,0,0,0,1-.63l.51.57a9.52,9.52,0,0,1-1.39,1.75,4.44,4.44,0,0,1-1.74,1.13A2.88,2.88,0,0,1,280.52,156.52Zm-1.89-.17a6.89,6.89,0,0,0,1.68-1.24l.17-3.67-4.89,1.48a1.41,1.41,0,0,0-1,1.51,2.32,2.32,0,0,0,.7,1.73,2.47,2.47,0,0,0,1.78.68A3.48,3.48,0,0,0,278.63,156.35Z"/><path class="cls-2" d="M289.66,157.22a1.62,1.62,0,0,0,.49-1,16.57,16.57,0,0,0,.09-2.09V136.46c0-1.29-.44-1.94-1.33-1.94a3.5,3.5,0,0,0-.54,0l-.36.09a3.9,3.9,0,0,1,.07-.64l.07-.69c1-.14,2.1-.33,3.21-.58l2.12-.46.22.46c-.27.41-.5,3-.71,7.64s-.3,9.71-.3,15.08A3,3,0,0,0,293,157a1.09,1.09,0,0,0,1,.45,6.12,6.12,0,0,0,.76,0l.5,0,.08.14-.33,1.55c-.21,0-.63-.05-1.26-.07s-1.29,0-2,0-1.32,0-2.07.09l-1.5.13.18-1.48A2.47,2.47,0,0,0,289.66,157.22Zm4-7.22,4.28-4.1a5,5,0,0,0,.69-.74,1,1,0,0,0,.18-.52.61.61,0,0,0-.47-.58,4.58,4.58,0,0,0-1.51-.18l-.11-.18.32-1,1.46,0c.71,0,1.44,0,2.18,0q.87,0,2-.09c.74-.06,1.22-.1,1.44-.13l.11.18-.29,1.12a8.7,8.7,0,0,0-3,1.65c-1,.82-2.19,1.92-3.58,3.32l-1.12,1.11,3.78,4.86a10.66,10.66,0,0,0,2.23,2.27,3.71,3.71,0,0,0,2.13.68l.11.18-.22,1.05c-.22.07-.66.18-1.33.34a8.14,8.14,0,0,1-1.33.23,2.9,2.9,0,0,1-1.26-.36,4.2,4.2,0,0,1-1.1-.88,16.27,16.27,0,0,1-1.42-1.82l-4.25-5.86Z"/><path class="cls-2" d="M316.09,158.44a4.61,4.61,0,0,1-1-3.36v-8.86a1.8,1.8,0,0,0-.43-1.37,2.58,2.58,0,0,0-1.62-.43l-.15-.22.18-1.08a12.09,12.09,0,0,0,2-1.24c.66-.49,1.2-.92,1.62-1.3s.69-.61.81-.73l.72.29c0,.12-.06.4-.11.86s-.11,1.07-.18,1.83l5.29-.1.11.1-.32,1.91-5.22-.1q-.26,4-.26,9a4.11,4.11,0,0,0,.63,2.59,2.72,2.72,0,0,0,2.18.75,4,4,0,0,0,1.08-.14,6.19,6.19,0,0,0,.9-.31l.47-.2.36.94c-.14.12-.45.35-.92.69s-1,.66-1.51,1a2.77,2.77,0,0,1-1.21.48A4.84,4.84,0,0,1,316.09,158.44Z"/><path class="cls-2" d="M334.2,156.52l-.15,0a18.68,18.68,0,0,1-2.36,2.05,3.26,3.26,0,0,1-1.6.76,4.55,4.55,0,0,1-3.31-1.26,4.3,4.3,0,0,1-1.3-3.21A3.25,3.25,0,0,1,326,153a2.4,2.4,0,0,1,1.38-1.05l6.84-1.87,0-1.58a4.32,4.32,0,0,0-.83-2.81,2.86,2.86,0,0,0-2.34-1,5.51,5.51,0,0,0-2.12.47,9.29,9.29,0,0,0-2.2,1.33l-.18-.11-.43-1.54c1.13-.65,2.26-1.23,3.4-1.75a6.94,6.94,0,0,1,2.47-.77,5.2,5.2,0,0,1,3.67,1.22,4.45,4.45,0,0,1,1.33,3.42c0,.53-.08,1.61-.25,3.24-.27,2.64-.4,4.32-.4,5a1.69,1.69,0,0,0,.4,1.22,1.38,1.38,0,0,0,1.08.44,3,3,0,0,0,1.19-.27,3.46,3.46,0,0,0,1-.63l.5.57a9.45,9.45,0,0,1-1.38,1.75,4.47,4.47,0,0,1-1.75,1.13A2.88,2.88,0,0,1,334.2,156.52Zm-1.89-.17a6.65,6.65,0,0,0,1.67-1.24l.18-3.67-4.9,1.48a1.42,1.42,0,0,0-1,1.51,2.32,2.32,0,0,0,.7,1.73,2.47,2.47,0,0,0,1.78.68A3.52,3.52,0,0,0,332.31,156.35Z"/><path class="cls-2" d="M344.35,157a4.88,4.88,0,0,0,.36-2.28V146.8a3.25,3.25,0,0,0-.33-1.7,1.14,1.14,0,0,0-1-.5,2.31,2.31,0,0,0-.49,0,.84.84,0,0,0-.27.07l-.18-.25.11-1.12c.91-.17,1.88-.37,2.9-.61l2-.47.25.22c-.05.21-.12.71-.21,1.49a13,13,0,0,0-.11,2.21l.14.11a10.28,10.28,0,0,1,2.54-2.77,4.52,4.52,0,0,1,2.54-1.08,4.91,4.91,0,0,1,.77.05l.35.09.1.15c-.05.33-.15,1.05-.3,2.14a24.47,24.47,0,0,0-.27,3l-1.41.1a6,6,0,0,0-.2-2,.75.75,0,0,0-.77-.48,2.9,2.9,0,0,0-1.69.66,7.52,7.52,0,0,0-1.66,1.78c0,.7-.07,1.85-.14,3.46s-.12,2.9-.15,3.89a2.69,2.69,0,0,0,.36,1.65,1.73,1.73,0,0,0,1.37.44c.31,0,.63,0,.94,0l.65,0,0,.15-.32,1.58-1.44,0c-.72,0-1.47,0-2.23,0s-1.7,0-2.42.05l-1.36.09.18-1.44A1.75,1.75,0,0,0,344.35,157Z"/><path class="cls-2" d="M358.53,158.44a4.61,4.61,0,0,1-1-3.36v-8.86a1.8,1.8,0,0,0-.43-1.37,2.58,2.58,0,0,0-1.62-.43l-.14-.22.18-1.08a12.42,12.42,0,0,0,2-1.24c.66-.49,1.2-.92,1.62-1.3s.69-.61.81-.73l.72.29c0,.12-.06.4-.11.86s-.1,1.07-.18,1.83l5.29-.1.11.1-.32,1.91-5.22-.1q-.25,4-.25,9a4.11,4.11,0,0,0,.63,2.59,2.7,2.7,0,0,0,2.17.75,4.13,4.13,0,0,0,1.09-.14,6.64,6.64,0,0,0,.9-.31c.23-.11.39-.17.46-.2l.36.94c-.14.12-.45.35-.92.69s-1,.66-1.51,1a2.78,2.78,0,0,1-1.2.48A4.85,4.85,0,0,1,358.53,158.44Z"/><path class="cls-2" d="M376.64,156.52l-.15,0a19.4,19.4,0,0,1-2.35,2.05,3.28,3.28,0,0,1-1.61.76,4.57,4.57,0,0,1-3.31-1.26,4.29,4.29,0,0,1-1.29-3.21,3.24,3.24,0,0,1,.52-1.83,2.47,2.47,0,0,1,1.38-1.05l6.84-1.87,0-1.58a4.32,4.32,0,0,0-.83-2.81,2.86,2.86,0,0,0-2.34-1,5.51,5.51,0,0,0-2.12.47,9.29,9.29,0,0,0-2.2,1.33l-.18-.11-.43-1.54c1.13-.65,2.26-1.23,3.4-1.75a6.94,6.94,0,0,1,2.47-.77,5.2,5.2,0,0,1,3.67,1.22,4.42,4.42,0,0,1,1.33,3.42c0,.53-.08,1.61-.25,3.24-.26,2.64-.4,4.32-.4,5a1.74,1.74,0,0,0,.4,1.22,1.38,1.38,0,0,0,1.08.44,3,3,0,0,0,1.19-.27,3.32,3.32,0,0,0,1-.63l.5.57a9.45,9.45,0,0,1-1.38,1.75,4.47,4.47,0,0,1-1.75,1.13A2.88,2.88,0,0,1,376.64,156.52Zm-1.89-.17a6.65,6.65,0,0,0,1.67-1.24l.18-3.67-4.89,1.48a1.41,1.41,0,0,0-1,1.51,2.36,2.36,0,0,0,.7,1.73,2.49,2.49,0,0,0,1.79.68A3.48,3.48,0,0,0,374.75,156.35Z"/><path class="cls-2" d="M386.79,157a4.88,4.88,0,0,0,.36-2.28V146.8a3.37,3.37,0,0,0-.32-1.7,1.17,1.17,0,0,0-1.05-.5,2.21,2.21,0,0,0-.48,0,.71.71,0,0,0-.27.07l-.18-.25.1-1.12c.92-.17,1.88-.37,2.9-.61l2-.47.25.22c0,.21-.11.71-.21,1.49a14.15,14.15,0,0,0-.11,2.21l.15.11a10.25,10.25,0,0,1,2.53-2.77,4.55,4.55,0,0,1,2.54-1.08,4.73,4.73,0,0,1,.77.05l.35.09.11.15c-.05.33-.15,1.05-.31,2.14a24.47,24.47,0,0,0-.27,3l-1.4.1a6.28,6.28,0,0,0-.2-2,.76.76,0,0,0-.78-.48,2.93,2.93,0,0,0-1.69.66,7.3,7.3,0,0,0-1.65,1.78l-.15,3.46c-.07,1.61-.12,2.9-.14,3.89A2.69,2.69,0,0,0,390,157a1.71,1.71,0,0,0,1.37.44c.31,0,.62,0,.93,0l.65,0,0,.15-.33,1.58-1.44,0c-.72,0-1.46,0-2.23,0s-1.69,0-2.41.05l-1.37.09.18-1.44A1.75,1.75,0,0,0,386.79,157Z"/><path class="cls-2" d="M401.55,158.44a6.63,6.63,0,0,1-2.66-2.81,8.84,8.84,0,0,1-.94-4.15,9.66,9.66,0,0,1,1.1-4.54,9,9,0,0,1,2.93-3.38,6.82,6.82,0,0,1,3.92-1.26,5.49,5.49,0,0,1,4,1.33,5.19,5.19,0,0,1,1.37,3.89,6,6,0,0,1-.22,1.76l-.46.43h-9.94a8.66,8.66,0,0,0,1.39,5.38,4.67,4.67,0,0,0,4,1.89,10.42,10.42,0,0,0,4.39-1.11l.22.07.4,1a18.21,18.21,0,0,1-2.87,1.69,6.25,6.25,0,0,1-2.64.76A7.81,7.81,0,0,1,401.55,158.44Zm5.76-10.38a1.3,1.3,0,0,0,.72-.26,1,1,0,0,0,.18-.72,2.93,2.93,0,0,0-.77-2.19,3,3,0,0,0-2.22-.76,4.09,4.09,0,0,0-2.9,1.15,5.41,5.41,0,0,0-1.53,3.1Z"/><path class="cls-2" d="M436.76,156.19a11.63,11.63,0,0,1-3.42,2.38,9.15,9.15,0,0,1-3.75.86,8.74,8.74,0,0,1-5.61-1.67,5.47,5.47,0,0,1-2.09-4.52,4.93,4.93,0,0,1,1.06-3.17,8.93,8.93,0,0,1,2.38-2.12c.87-.53,1.31-.76,1.31-.69V147c-2-2.06-2.95-3.95-2.95-5.65a4.85,4.85,0,0,1,.94-2.92,6.46,6.46,0,0,1,2.57-2.05,8.66,8.66,0,0,1,3.65-.75,11.75,11.75,0,0,1,2.13.18,10.77,10.77,0,0,1,1.53.37l.7.27.07.54-1.73,2.67-.36,0a9.89,9.89,0,0,0-2.05-1.56,3.9,3.9,0,0,0-1.76-.38,3.46,3.46,0,0,0-2.31.74,2.51,2.51,0,0,0-.86,2,5.19,5.19,0,0,0,.49,2.26,9.4,9.4,0,0,0,1.61,2.29,37.16,37.16,0,0,0,3.34,3.11l5.75,5a6.71,6.71,0,0,0,.65-3.09,6,6,0,0,0-.68-3.21,2.38,2.38,0,0,0-2.13-1,6.67,6.67,0,0,0-1.24.12,6.51,6.51,0,0,0-.81.2l-.5-1.55.3-.18a4.08,4.08,0,0,1,1.61-.46l7.41-.44c.91-.07,1.59-.13,2-.19a1.55,1.55,0,0,0,.74-.2l.36.86-.47,1.12a1.15,1.15,0,0,1-.7.59,7.91,7.91,0,0,1-1.82.13h-3.6l-.11.21a4.49,4.49,0,0,1,1.11,1.57,4.81,4.81,0,0,1,.4,2,8.29,8.29,0,0,1-1.44,4.54l5,4.25v.57c-.17.12-.53.34-1.08.65a3,3,0,0,1-1.15.47Q441,160,436.76,156.19Zm-3.33.51a7.1,7.1,0,0,0,2.36-1.37l-8.1-7.24a5.41,5.41,0,0,0-2.25,1.86,4.35,4.35,0,0,0-.85,2.57,4,4,0,0,0,1.64,3.38,7,7,0,0,0,4.37,1.26A8.65,8.65,0,0,0,433.43,156.7Z"/><path class="cls-2" d="M462.42,156.52l-.14,0a18.68,18.68,0,0,1-2.36,2.05,3.22,3.22,0,0,1-1.6.76A4.55,4.55,0,0,1,455,158a4.3,4.3,0,0,1-1.3-3.21,3.32,3.32,0,0,1,.52-1.83,2.49,2.49,0,0,1,1.39-1.05l6.84-1.87,0-1.58a4.32,4.32,0,0,0-.83-2.81,2.86,2.86,0,0,0-2.34-1,5.6,5.6,0,0,0-2.13.47,9.44,9.44,0,0,0-2.19,1.33l-.18-.11-.43-1.54c1.12-.65,2.26-1.23,3.4-1.75a7,7,0,0,1,2.46-.77,5.23,5.23,0,0,1,3.68,1.22,4.45,4.45,0,0,1,1.33,3.42c0,.53-.09,1.61-.25,3.24-.27,2.64-.4,4.32-.4,5a1.69,1.69,0,0,0,.4,1.22,1.38,1.38,0,0,0,1.08.44,2.88,2.88,0,0,0,1.18-.27,3.38,3.38,0,0,0,1-.63l.5.57a9.45,9.45,0,0,1-1.38,1.75,4.47,4.47,0,0,1-1.75,1.13A2.89,2.89,0,0,1,462.42,156.52Zm-1.89-.17a6.7,6.7,0,0,0,1.68-1.24l.18-3.67-4.9,1.48a1.42,1.42,0,0,0-1,1.51,2.32,2.32,0,0,0,.7,1.73,2.47,2.47,0,0,0,1.78.68A3.45,3.45,0,0,0,460.53,156.35Z"/><path class="cls-2" d="M470.13,158a3.39,3.39,0,0,0,1.42-.72,1.85,1.85,0,0,0,.5-1.05,16,16,0,0,0,.09-2.05V136.46a3.1,3.1,0,0,0-.25-1.51,1.15,1.15,0,0,0-1-.39c-.12,0-.4,0-.83.07l-.11-.07.15-1.23a46.53,46.53,0,0,0,5.32-1l.22.46c-.26.41-.5,3-.7,7.71s-.31,9.73-.31,15a3.12,3.12,0,0,0,.29,1.55,1.06,1.06,0,0,0,1,.47l1.26-.07.07.14-.28,1.55c-1.59-.07-2.66-.11-3.21-.11a23.72,23.72,0,0,0-3.71.43Z"/><path class="cls-2" d="M482.69,158.44a6.63,6.63,0,0,1-2.66-2.81,8.84,8.84,0,0,1-.94-4.15,9.79,9.79,0,0,1,1.1-4.54,9,9,0,0,1,2.93-3.38,6.85,6.85,0,0,1,3.93-1.26,5.48,5.48,0,0,1,4,1.33,5.15,5.15,0,0,1,1.37,3.89,6.38,6.38,0,0,1-.21,1.76l-.47.43h-9.94a8.66,8.66,0,0,0,1.39,5.38,4.69,4.69,0,0,0,4,1.89,10.49,10.49,0,0,0,4.39-1.11l.21.07.4,1a18.11,18.11,0,0,1-2.86,1.69,6.32,6.32,0,0,1-2.65.76A7.81,7.81,0,0,1,482.69,158.44Zm5.76-10.38a1.3,1.3,0,0,0,.72-.26,1,1,0,0,0,.18-.72,2.93,2.93,0,0,0-.77-2.19,3,3,0,0,0-2.22-.76,4,4,0,0,0-2.89,1.15,5.29,5.29,0,0,0-1.53,3.1Z"/><path class="cls-2" d="M507.57,144.1l-.15.18a5.28,5.28,0,0,1,1.44,3.67,5.74,5.74,0,0,1-.95,3.2,6.62,6.62,0,0,1-2.57,2.32,7.53,7.53,0,0,1-3.57.85,7.08,7.08,0,0,1-2-.29,4.56,4.56,0,0,0-1.19.87,1.16,1.16,0,0,0-.36.79c0,.55.37.93,1.11,1.15a23.52,23.52,0,0,0,3.5.61q2.34.28,3.78.6a6.22,6.22,0,0,1,2.48,1.09,2.59,2.59,0,0,1,1,2.2,4.62,4.62,0,0,1-1.27,3.06,9.46,9.46,0,0,1-3.35,2.39,10.29,10.29,0,0,1-4.27.92,5.84,5.84,0,0,1-4-1.28,4.43,4.43,0,0,1-1.46-3.51,13.05,13.05,0,0,1,1.46-1.51c.63-.58,1.34-1.15,2.1-1.73v-.21a5.81,5.81,0,0,1-2.88-1.23,3,3,0,0,1-1-2.3,17,17,0,0,1,3-2.3v-.15a5.24,5.24,0,0,1-2-1.92,5.3,5.3,0,0,1-.7-2.72,6.13,6.13,0,0,1,.92-3.26,6.93,6.93,0,0,1,2.45-2.39,6.45,6.45,0,0,1,3.33-.9,12.55,12.55,0,0,1,2.05.21,7.82,7.82,0,0,0,1.47.18,37.14,37.14,0,0,0,5-1.08l.11.14-.4,2Q510,143.88,507.57,144.1Zm-2.36,7.59a4.07,4.07,0,0,0,1-2.88,4.88,4.88,0,0,0-1.15-3.38,3.79,3.79,0,0,0-3-1.3,3.31,3.31,0,0,0-2.61,1.08,4.28,4.28,0,0,0-1,2.92,4.77,4.77,0,0,0,1.15,3.33,3.86,3.86,0,0,0,3,1.28A3.36,3.36,0,0,0,505.21,151.69Zm-6,9.74a3.36,3.36,0,0,0-.58,1.82,2.3,2.3,0,0,0,1,2,4.74,4.74,0,0,0,2.78.74,7,7,0,0,0,2.61-.49,5.2,5.2,0,0,0,2-1.31,2.58,2.58,0,0,0,.76-1.77,1.4,1.4,0,0,0-.54-1.15,5.13,5.13,0,0,0-2-.75c-1-.22-2.44-.46-4.41-.73A6,6,0,0,0,499.22,161.43Z"/><path class="cls-2" d="M515.16,157a4.88,4.88,0,0,0,.36-2.28V146.8a3.27,3.27,0,0,0-.32-1.7,1.16,1.16,0,0,0-1-.5,2.25,2.25,0,0,0-.49,0,.84.84,0,0,0-.27.07l-.18-.25.11-1.12c.91-.17,1.88-.37,2.9-.61l2-.47.25.22c-.05.21-.12.71-.22,1.49a14.09,14.09,0,0,0-.1,2.21l.14.11a10.28,10.28,0,0,1,2.54-2.77,4.52,4.52,0,0,1,2.54-1.08,4.91,4.91,0,0,1,.77.05l.34.09.11.15c0,.33-.15,1.05-.31,2.14a29.14,29.14,0,0,0-.27,3l-1.4.1a6.28,6.28,0,0,0-.2-2,.75.75,0,0,0-.77-.48,2.9,2.9,0,0,0-1.69.66,7.14,7.14,0,0,0-1.66,1.78c0,.7-.07,1.85-.14,3.46s-.13,2.9-.15,3.89a2.69,2.69,0,0,0,.36,1.65,1.73,1.73,0,0,0,1.37.44c.31,0,.62,0,.94,0l.64,0,0,.15-.32,1.58-1.44,0c-.72,0-1.47,0-2.24,0s-1.69,0-2.41.05l-1.37.09.18-1.44A1.75,1.75,0,0,0,515.16,157Z"/><path class="cls-2" d="M529.92,158.44a6.63,6.63,0,0,1-2.66-2.81,9,9,0,0,1-.94-4.15,9.79,9.79,0,0,1,1.1-4.54,9,9,0,0,1,2.94-3.38,6.79,6.79,0,0,1,3.92-1.26,5.52,5.52,0,0,1,4,1.33,5.19,5.19,0,0,1,1.36,3.89,6.38,6.38,0,0,1-.21,1.76l-.47.43H529a8.66,8.66,0,0,0,1.39,5.38,4.69,4.69,0,0,0,4,1.89,10.45,10.45,0,0,0,4.39-1.11l.21.07.4,1a18.11,18.11,0,0,1-2.86,1.69,6.32,6.32,0,0,1-2.65.76A7.84,7.84,0,0,1,529.92,158.44Zm5.76-10.38a1.3,1.3,0,0,0,.72-.26,1,1,0,0,0,.18-.72,2.93,2.93,0,0,0-.77-2.19,3,3,0,0,0-2.21-.76,4.07,4.07,0,0,0-2.9,1.15,5.29,5.29,0,0,0-1.53,3.1Z"/><path class="cls-2" d="M541.52,166.83a2.57,2.57,0,0,1-.65-1.21l.18-.25a5.38,5.38,0,0,0,3.76-1.67,13.65,13.65,0,0,0,3-4.7q-2.76-8.79-4.46-13.25a2.43,2.43,0,0,0-.92-1.29,2.88,2.88,0,0,0-1.53-.44l-.07-.14.22-1.19,3,0c.88,0,1.77,0,2.64-.11l1.68-.14.07.18-.22,1.11a5,5,0,0,0-1.64.23.73.73,0,0,0-.41.71,16,16,0,0,0,.7,3c.47,1.6.95,3.21,1.46,4.8s.84,2.64,1,3.12h.14q4.14-9.9,4.14-10.77c0-.62-.46-.93-1.37-.93h-1.65l-.07-.15.21-1.19q.33,0,1.44.09c.74,0,1.49.06,2.23.06l3.06,0-.25,1.33a2.25,2.25,0,0,0-1.2.56,4.2,4.2,0,0,0-.81,1.5L550.62,157a72.4,72.4,0,0,1-3.06,6.73,9.57,9.57,0,0,1-2.34,3.08,4.19,4.19,0,0,1-2.77.84Q542.17,167.67,541.52,166.83Z"/><path class="cls-2" d="M566.82,156.52l-.14,0a18.68,18.68,0,0,1-2.36,2.05,3.26,3.26,0,0,1-1.6.76,4.55,4.55,0,0,1-3.31-1.26,4.27,4.27,0,0,1-1.3-3.21,3.32,3.32,0,0,1,.52-1.83,2.45,2.45,0,0,1,1.39-1.05l6.84-1.87,0-1.58a4.32,4.32,0,0,0-.83-2.81,2.86,2.86,0,0,0-2.34-1,5.6,5.6,0,0,0-2.13.47,9.44,9.44,0,0,0-2.19,1.33l-.18-.11-.43-1.54c1.12-.65,2.26-1.23,3.4-1.75a7,7,0,0,1,2.46-.77,5.23,5.23,0,0,1,3.68,1.22,4.45,4.45,0,0,1,1.33,3.42c0,.53-.09,1.61-.25,3.24-.27,2.64-.4,4.32-.4,5a1.69,1.69,0,0,0,.4,1.22,1.38,1.38,0,0,0,1.08.44,2.88,2.88,0,0,0,1.18-.27,3.38,3.38,0,0,0,1-.63l.5.57a9.12,9.12,0,0,1-1.39,1.75,4.37,4.37,0,0,1-1.74,1.13A2.88,2.88,0,0,1,566.82,156.52Zm-1.89-.17a6.7,6.7,0,0,0,1.68-1.24l.18-3.67-4.9,1.48a1.42,1.42,0,0,0-1,1.51,2.32,2.32,0,0,0,.7,1.73,2.47,2.47,0,0,0,1.78.68A3.45,3.45,0,0,0,564.93,156.35Z"/></svg>