<svg id="Layer_1" data-name="Layer 1" xmlns="http://www.w3.org/2000/svg" viewBox="0 0 700 300"><defs><style>.cls-1{fill:#ada8b6;}.cls-2{fill:#f1e9e6;}</style></defs><title>cochin</title><rect class="cls-1" width="700" height="300"/><path class="cls-2" d="M137.5,154.68c-.24-.6-.51-1.21-.81-1.82a7.76,7.76,0,0,0-1.08-1.64,5.46,5.46,0,0,0-1.48-1.18,3.9,3.9,0,0,0-2-.47,3.3,3.3,0,0,0-1.91.54,4.23,4.23,0,0,0-1.28,1.38,7,7,0,0,0-.72,1.91,10.17,10.17,0,0,0-.23,2.11,6.65,6.65,0,0,0,.39,2.27,6.33,6.33,0,0,0,1.12,1.92,5,5,0,0,0,1.75,1.33,5.15,5.15,0,0,0,2.28.49,6.47,6.47,0,0,0,2.52-.49,11.17,11.17,0,0,0,2.27-1.24l.5.58a13.42,13.42,0,0,1-3.18,2,9,9,0,0,1-3.51.66,6.48,6.48,0,0,1-2.68-.57,7.36,7.36,0,0,1-2.24-1.55,7.78,7.78,0,0,1-1.53-2.29,6.89,6.89,0,0,1-.57-2.79,7,7,0,0,1,.57-2.79,7.73,7.73,0,0,1,1.53-2.28,7.19,7.19,0,0,1,2.24-1.55,6.34,6.34,0,0,1,2.68-.58,23.38,23.38,0,0,1,2.77.16q1.26.17,2.52.42l.47,5.47Z"/><path class="cls-2" d="M158.3,162.6c-.69,0-1.44-.08-2.23-.11s-1.59,0-2.41,0c-.55,0-1.09,0-1.6,0s-1,.06-1.5.11v-.43a5.48,5.48,0,0,0,1.79-.6A1.67,1.67,0,0,0,153,160v-5.8a4.55,4.55,0,0,0-.78-2.84,3,3,0,0,0-2.5-1,4.68,4.68,0,0,0-1.26.18,5,5,0,0,0-1.19.49,4,4,0,0,0-.9.66,1,1,0,0,0-.36.69V160a1.61,1.61,0,0,0,.69,1.56,6.39,6.39,0,0,0,2,.6v.43c-.82,0-1.63-.08-2.43-.11s-1.62,0-2.43,0c-.55,0-1.09,0-1.6,0s-1.05.06-1.61.11v-.43a5.84,5.84,0,0,0,1.88-.6,1.65,1.65,0,0,0,.64-1.56V141.65a13.48,13.48,0,0,0-.12-2,2.5,2.5,0,0,0-.43-1.11,1.41,1.41,0,0,0-.83-.49,8.48,8.48,0,0,0-1.32-.14v-.43l5.51-.62v13.94a15.31,15.31,0,0,1,2.23-1.44,5.05,5.05,0,0,1,2.42-.69,7.54,7.54,0,0,1,1.92.25,4.62,4.62,0,0,1,1.64.83,4.09,4.09,0,0,1,1.15,1.55,5.91,5.91,0,0,1,.43,2.41V160a1.66,1.66,0,0,0,.65,1.56,5.77,5.77,0,0,0,1.87.6Z"/><path class="cls-2" d="M162.48,153.49c0-.57,0-1.08,0-1.53a2.59,2.59,0,0,0-.33-1.11,2,2,0,0,0-.81-.74,4.19,4.19,0,0,0-1.47-.4v-.5l5.47-.36v10.58a5.82,5.82,0,0,0,.14,1.42,1.5,1.5,0,0,0,.49.8,2,2,0,0,0,.88.37,8.63,8.63,0,0,0,1.33.15v.43c-.84,0-1.68-.08-2.54-.11l-2.53,0q-.84,0-1.62,0c-.53,0-1.07.06-1.62.11v-.43A7.51,7.51,0,0,0,161,162a1.87,1.87,0,0,0,.83-.37,1.61,1.61,0,0,0,.47-.8,5.82,5.82,0,0,0,.14-1.42Zm1-15.23a1.77,1.77,0,0,1,1.35.6,2,2,0,0,1,.56,1.38,2,2,0,0,1-.56,1.39,1.84,1.84,0,0,1-2.7,0,2,2,0,0,1-.56-1.39,2,2,0,0,1,.56-1.38A1.79,1.79,0,0,1,163.52,138.26Z"/><path class="cls-2" d="M182.14,154.68c-.25-.6-.52-1.21-.82-1.82a7.76,7.76,0,0,0-1.08-1.64,5.42,5.42,0,0,0-1.47-1.18,3.92,3.92,0,0,0-2-.47,3.3,3.3,0,0,0-1.91.54,4.23,4.23,0,0,0-1.28,1.38,7,7,0,0,0-.72,1.91,9.53,9.53,0,0,0-.23,2.11,6.65,6.65,0,0,0,.39,2.27,6.33,6.33,0,0,0,1.12,1.92,5,5,0,0,0,1.75,1.33,5.15,5.15,0,0,0,2.28.49,6.47,6.47,0,0,0,2.52-.49,11.17,11.17,0,0,0,2.27-1.24l.5.58a13.42,13.42,0,0,1-3.18,2,9,9,0,0,1-3.51.66,6.56,6.56,0,0,1-2.69-.57,7.44,7.44,0,0,1-2.23-1.55,7.78,7.78,0,0,1-1.53-2.29,6.89,6.89,0,0,1-.57-2.79,7,7,0,0,1,.57-2.79,7.73,7.73,0,0,1,1.53-2.28,7.26,7.26,0,0,1,2.23-1.55,6.42,6.42,0,0,1,2.69-.58,23.38,23.38,0,0,1,2.77.16q1.26.17,2.52.42l.47,5.47Z"/><path class="cls-2" d="M185.05,162.17a4.55,4.55,0,0,0,1.49-.36,1.61,1.61,0,0,0,.76-.72,3.26,3.26,0,0,0,.29-1.21c0-.49,0-1.1,0-1.82v-16.7a7.29,7.29,0,0,0-.16-1.71,2.46,2.46,0,0,0-.49-1,1.6,1.6,0,0,0-.84-.53,6.59,6.59,0,0,0-1.21-.18v-.43l5.51-.65v19.34c.26-.24.69-.59,1.28-1s1.18-.92,1.78-1.44a15.54,15.54,0,0,0,1.58-1.55,2.21,2.21,0,0,0,.69-1.38,1,1,0,0,0-.27-.81,1.51,1.51,0,0,0-.81-.31v-.43h7v.43a7.55,7.55,0,0,0-2,.63,14.73,14.73,0,0,0-1.8,1c-.57.4-1.13.83-1.67,1.28s-1.08.9-1.6,1.33c.55.65,1.14,1.42,1.76,2.31a32.83,32.83,0,0,0,2,2.59,15.05,15.05,0,0,0,2.32,2.21,5.42,5.42,0,0,0,2.64,1.14v.43c-.72,0-1.44-.08-2.17-.11s-1.47,0-2.22,0-1.52,0-2.27,0-1.5.06-2.26.11v-.43a2.81,2.81,0,0,0,1.26-.25,1.05,1.05,0,0,0,.64-1,2.49,2.49,0,0,0-.45-1.2,15.87,15.87,0,0,0-1-1.52c-.4-.51-.8-1-1.21-1.51s-.7-.88-.9-1.17l-2.3,1.73v2.66a2.23,2.23,0,0,0,.5,1.64,3.61,3.61,0,0,0,2,.67v.43c-.79,0-1.58-.08-2.36-.11s-1.56,0-2.36,0c-.55,0-1.08,0-1.6,0s-1.05.06-1.6.11Z"/><path class="cls-2" d="M208,154.9a8.53,8.53,0,0,0,.48,3.09,5.49,5.49,0,0,0,1.23,1.95,4.17,4.17,0,0,0,1.58,1,4.69,4.69,0,0,0,1.57.29,7.41,7.41,0,0,0,2.73-.48,6.9,6.9,0,0,0,2.27-1.53l.61.57a11.62,11.62,0,0,1-3,2.41,7.67,7.67,0,0,1-3.71.83,6.07,6.07,0,0,1-2.77-.61,6.68,6.68,0,0,1-2.09-1.62,7,7,0,0,1-1.31-2.3,8.14,8.14,0,0,1-.45-2.67,8,8,0,0,1,.45-2.66,7,7,0,0,1,1.31-2.31,6.68,6.68,0,0,1,2.09-1.62,6.2,6.2,0,0,1,2.77-.61,6.59,6.59,0,0,1,4.57,1.55,7.35,7.35,0,0,1,2.13,4.72Zm7-1.08a17.24,17.24,0,0,0-.29-1.75,3.31,3.31,0,0,0-.58-1.3,2.51,2.51,0,0,0-1-.79,4.36,4.36,0,0,0-1.66-.27,2.65,2.65,0,0,0-1.38.38,3.85,3.85,0,0,0-1.08,1,4.55,4.55,0,0,0-.69,1.33,5,5,0,0,0-.23,1.43Z"/><path class="cls-2" d="M220.69,149.64l5.26-.79v1.91a14.79,14.79,0,0,1,2.23-1.44,5,5,0,0,1,2.41-.69,7.68,7.68,0,0,1,1.93.25,4.58,4.58,0,0,1,1.63.83,4.11,4.11,0,0,1,1.16,1.55,6.08,6.08,0,0,1,.43,2.41V160a1.64,1.64,0,0,0,.65,1.56,5.69,5.69,0,0,0,1.87.6v.43c-.7,0-1.44-.08-2.23-.11s-1.6,0-2.42,0c-.55,0-1.08,0-1.6,0s-1,.06-1.49.11v-.43a5.49,5.49,0,0,0,1.78-.6,1.67,1.67,0,0,0,.63-1.56v-5.8a4.61,4.61,0,0,0-.77-2.84,3,3,0,0,0-2.51-1,4.73,4.73,0,0,0-1.26.18,5,5,0,0,0-1.18.49,4,4,0,0,0-.9.66,1,1,0,0,0-.36.69V160a1.61,1.61,0,0,0,.68,1.56,6.39,6.39,0,0,0,2.05.6v.43c-.82,0-1.63-.08-2.43-.11s-1.61,0-2.43,0c-.55,0-1.08,0-1.6,0s-1.05.06-1.6.11v-.43a5.77,5.77,0,0,0,1.87-.6,1.66,1.66,0,0,0,.65-1.56v-8.35c0-.72-.25-1.17-.74-1.34a5.5,5.5,0,0,0-1.71-.25Z"/><path class="cls-2" d="M248.48,162.17a5.77,5.77,0,0,0,1.44-.27,1.68,1.68,0,0,0,.83-.6,2.22,2.22,0,0,0,.36-1.08,16.37,16.37,0,0,0,.07-1.72V140.42a3.3,3.3,0,0,0-.43-2c-.29-.37-1-.56-2.05-.56v-.43l5.29-.65V158.5a16.37,16.37,0,0,0,.07,1.72,2,2,0,0,0,.38,1.08,1.77,1.77,0,0,0,.86.6,6.24,6.24,0,0,0,1.53.27v.43c-.69,0-1.41-.08-2.14-.11l-2.18,0c-.69,0-1.37,0-2,0s-1.33.06-2,.11Z"/><path class="cls-2" d="M260.76,153.49q0-.86-.06-1.53a2.46,2.46,0,0,0-.32-1.11,2,2,0,0,0-.81-.74,4.19,4.19,0,0,0-1.48-.4v-.5l5.47-.36v10.58a5.3,5.3,0,0,0,.15,1.42,1.49,1.49,0,0,0,.48.8,2.07,2.07,0,0,0,.89.37,8.63,8.63,0,0,0,1.33.15v.43c-.84,0-1.69-.08-2.54-.11l-2.54,0q-.82,0-1.62,0c-.53,0-1.07.06-1.62.11v-.43a7.65,7.65,0,0,0,1.23-.15,1.83,1.83,0,0,0,.82-.37,1.48,1.48,0,0,0,.47-.8,5.3,5.3,0,0,0,.15-1.42Zm1-15.23a1.77,1.77,0,0,1,1.35.6,2,2,0,0,1,.56,1.38,2,2,0,0,1-.56,1.39,1.84,1.84,0,0,1-2.7,0,2,2,0,0,1-.56-1.39,2,2,0,0,1,.56-1.38A1.77,1.77,0,0,1,261.8,138.26Z"/><path class="cls-2" d="M266.52,149.06c.76,0,1.3.05,1.6.08l.7,0h1a6.12,6.12,0,0,1,.69,0c.38,0,.71,0,1,0H273l.68,0c.24,0,.64,0,1.19-.08v.44a4.35,4.35,0,0,0-1.47.5,1.33,1.33,0,0,0-.72,1.26,5.72,5.72,0,0,0,.48,1.85c.33.83.7,1.69,1.12,2.58s.83,1.72,1.24,2.5.7,1.34.86,1.67q.36-.68,1.05-1.89c.45-.8.9-1.63,1.35-2.5s.83-1.68,1.15-2.45a5.09,5.09,0,0,0,.49-1.72,1.41,1.41,0,0,0-.6-1.37,3.93,3.93,0,0,0-1.46-.43v-.44c.46.05,1,.09,1.7.11s1.26,0,1.76,0,1.05,0,1.57,0,1-.06,1.56-.11v.44a2.88,2.88,0,0,0-.93.23,3.33,3.33,0,0,0-1,.65,7.72,7.72,0,0,0-1,1.2,17,17,0,0,0-1.09,1.91c-.84,1.59-1.68,3.13-2.52,4.65a48.59,48.59,0,0,0-2.31,4.75H274.8q-1.16-2.59-2.51-5.31c-.9-1.81-1.71-3.55-2.43-5.2a6.31,6.31,0,0,0-1.29-1.88,3.56,3.56,0,0,0-2.05-1Z"/><path class="cls-2" d="M288.91,154.9a8.53,8.53,0,0,0,.48,3.09,5.63,5.63,0,0,0,1.23,1.95,4.17,4.17,0,0,0,1.58,1,4.73,4.73,0,0,0,1.57.29,7.38,7.38,0,0,0,2.73-.48,6.79,6.79,0,0,0,2.27-1.53l.61.57a11.62,11.62,0,0,1-3,2.41,7.67,7.67,0,0,1-3.71.83,6.1,6.1,0,0,1-2.77-.61,6.68,6.68,0,0,1-2.09-1.62,7.17,7.17,0,0,1-1.31-2.3,8.14,8.14,0,0,1-.45-2.67,8,8,0,0,1,.45-2.66,7.22,7.22,0,0,1,1.31-2.31,6.68,6.68,0,0,1,2.09-1.62,6.23,6.23,0,0,1,2.77-.61,6.59,6.59,0,0,1,4.57,1.55,7.3,7.3,0,0,1,2.13,4.72Zm7-1.08a14.84,14.84,0,0,0-.29-1.75,3.31,3.31,0,0,0-.58-1.3,2.51,2.51,0,0,0-1-.79,4.33,4.33,0,0,0-1.66-.27,2.65,2.65,0,0,0-1.38.38,3.85,3.85,0,0,0-1.08,1,4.55,4.55,0,0,0-.69,1.33,5,5,0,0,0-.23,1.43Z"/><path class="cls-2" d="M301.47,162.17a5.69,5.69,0,0,0,1.87-.6A1.64,1.64,0,0,0,304,160v-8.35c0-.72-.24-1.17-.74-1.34a5.5,5.5,0,0,0-1.71-.25v-.43l5.26-.79v2.05a9.48,9.48,0,0,0,1-.76c.37-.31.77-.61,1.19-.91a9.53,9.53,0,0,1,1.28-.78,2.87,2.87,0,0,1,1.26-.32,2.72,2.72,0,0,1,2.1.77,3.36,3.36,0,0,1,.78,2.14l-2.88,1.52c0-.17.09-.35.14-.53a2.7,2.7,0,0,0,.07-.7,1.51,1.51,0,0,0-.36-1,1.17,1.17,0,0,0-1-.45,2.22,2.22,0,0,0-1,.25,5.73,5.73,0,0,0-1,.63,8.45,8.45,0,0,0-.88.81l-.74.76V160a1.63,1.63,0,0,0,.68,1.56,6.46,6.46,0,0,0,2.06.6v.43c-.82,0-1.63-.08-2.43-.11s-1.62,0-2.43,0c-.56,0-1.09,0-1.61,0s-1.05.06-1.6.11Z"/><path class="cls-2" d="M329.84,160a1.66,1.66,0,0,0,.65,1.56,5.67,5.67,0,0,0,1.83.6v.43c-.69,0-1.43-.08-2.21-.11s-1.58,0-2.39,0q-.84,0-1.62,0c-.53,0-1.1.06-1.7.11v-.43a6.14,6.14,0,0,0,2-.6A1.64,1.64,0,0,0,327,160v-7.35a6.08,6.08,0,0,0-.12-1.36,1.62,1.62,0,0,0-.42-.78,1.66,1.66,0,0,0-.75-.38,6.81,6.81,0,0,0-1.16-.14v-.43l5.26-.72v1.8a18.53,18.53,0,0,1,2.29-1.42,5.53,5.53,0,0,1,2.64-.6,4.66,4.66,0,0,1,2.22.51,5.65,5.65,0,0,1,1.74,1.47c.31-.21.66-.44,1-.66s.78-.45,1.18-.65a6.7,6.7,0,0,1,1.26-.49,4.79,4.79,0,0,1,1.26-.18,4.42,4.42,0,0,1,4.86,5V160a1.64,1.64,0,0,0,.67,1.56,6.07,6.07,0,0,0,2,.6v.43c-.77,0-1.55-.08-2.34-.11s-1.59,0-2.41,0c-.55,0-1.08,0-1.58,0s-1,.06-1.41.11v-.43a5.35,5.35,0,0,0,1.68-.6,1.67,1.67,0,0,0,.63-1.56v-6a3.61,3.61,0,0,0-.89-2.65,2.8,2.8,0,0,0-2-.88,5.26,5.26,0,0,0-3.53,1.15V160a1.66,1.66,0,0,0,.65,1.56,5.65,5.65,0,0,0,1.84.6v.43c-.7,0-1.44-.08-2.22-.11s-1.58,0-2.39,0q-.83,0-1.59,0c-.5,0-1,.06-1.4.11v-.43a5.29,5.29,0,0,0,1.67-.6,1.67,1.67,0,0,0,.63-1.56v-6a5.81,5.81,0,0,0-.54-2.75q-.54-1-2.37-1a4.61,4.61,0,0,0-1,.09,3.33,3.33,0,0,0-.81.3,5.94,5.94,0,0,0-.81.56c-.27.23-.59.51-1,.85Z"/><path class="cls-2" d="M360.76,148.63a9.21,9.21,0,0,1,3.15.52,7.39,7.39,0,0,1,2.45,1.46,6.43,6.43,0,0,1,1.59,2.27,8.19,8.19,0,0,1,0,5.9,6.34,6.34,0,0,1-1.59,2.27,7.23,7.23,0,0,1-2.45,1.46,9.8,9.8,0,0,1-6.3,0,7.28,7.28,0,0,1-2.44-1.46,6.22,6.22,0,0,1-1.59-2.27,8.05,8.05,0,0,1,0-5.9,6.3,6.3,0,0,1,1.59-2.27,7.44,7.44,0,0,1,2.44-1.46A9.29,9.29,0,0,1,360.76,148.63Zm-.64,1.08a3,3,0,0,0-1.75.51,4,4,0,0,0-1.22,1.31,5.89,5.89,0,0,0-.72,1.84,8.86,8.86,0,0,0-.24,2,8.61,8.61,0,0,0,.31,2.3,6.83,6.83,0,0,0,.95,2.11,5.21,5.21,0,0,0,1.62,1.55,4.47,4.47,0,0,0,2.34.59,3,3,0,0,0,1.75-.5,4.18,4.18,0,0,0,1.22-1.32,5.91,5.91,0,0,0,.72-1.81,8.92,8.92,0,0,0,.24-2.06A8.38,8.38,0,0,0,365,154a7.12,7.12,0,0,0-1-2.13,5.18,5.18,0,0,0-1.62-1.54A4.31,4.31,0,0,0,360.12,149.71Z"/><path class="cls-2" d="M375.78,158.06a3.27,3.27,0,0,0,.77,2.34,3,3,0,0,0,2.29.83,5,5,0,0,0,2.28-.56,5.33,5.33,0,0,0,1.68-1.17v-7.59a4.77,4.77,0,0,0-.08-.87,1.28,1.28,0,0,0-.36-.7,2.55,2.55,0,0,0-.86-.54,7.44,7.44,0,0,0-1.55-.38V149l5.65-.4v11.05a2,2,0,0,0,.71,1.82,4,4,0,0,0,2,.52v.36c-.91.05-1.83.09-2.76.11s-1.83.06-2.71.11v-1.87a18.62,18.62,0,0,1-2.65,1.62,6.78,6.78,0,0,1-3,.68,4.59,4.59,0,0,1-2.95-1,3.6,3.6,0,0,1-1.22-3v-7.45a1.65,1.65,0,0,0-.6-1.48,5.17,5.17,0,0,0-2.1-.57v-.47l5.51-.47Z"/><path class="cls-2" d="M390.53,157.88H391a12.89,12.89,0,0,0,1.13,1.48,9.52,9.52,0,0,0,1.39,1.3,7.24,7.24,0,0,0,1.62.93A4.74,4.74,0,0,0,397,162a5.28,5.28,0,0,0,1-.09,3,3,0,0,0,.88-.3,2,2,0,0,0,.65-.58,1.52,1.52,0,0,0,.25-.9,1.89,1.89,0,0,0-.66-1.48,6.7,6.7,0,0,0-1.64-1,21.12,21.12,0,0,0-2.15-.81,14.48,14.48,0,0,1-2.14-.9,5.82,5.82,0,0,1-1.63-1.28,2.82,2.82,0,0,1-.67-2,3.7,3.7,0,0,1,1.21-3,4.44,4.44,0,0,1,3-1.05,9.67,9.67,0,0,1,2.64.36,11.64,11.64,0,0,0,2.65.43l.21,3.82h-.46a7.28,7.28,0,0,0-.9-1.31,7.12,7.12,0,0,0-1.21-1.12,6.59,6.59,0,0,0-1.42-.79,4,4,0,0,0-1.55-.31,3.24,3.24,0,0,0-1.62.4,1.49,1.49,0,0,0-.72,1.44,1.46,1.46,0,0,0,.67,1.24,8.77,8.77,0,0,0,1.63.9c.65.28,1.37.55,2.15.81a11.94,11.94,0,0,1,2.14.95,6.11,6.11,0,0,1,1.64,1.37,3.07,3.07,0,0,1,.66,2,4.62,4.62,0,0,1-.41,2.07,3.3,3.3,0,0,1-1.14,1.28,4.79,4.79,0,0,1-1.67.66,9.45,9.45,0,0,1-2,.2,11.08,11.08,0,0,1-1.66-.12c-.53-.09-1-.19-1.49-.31l-1.32-.32c-.41-.1-.77-.17-1.08-.22Z"/><path class="cls-2" d="M404.54,157.88h.5a14.26,14.26,0,0,0,1.14,1.48,10,10,0,0,0,1.38,1.3,7.72,7.72,0,0,0,1.62.93A4.75,4.75,0,0,0,411,162a5.17,5.17,0,0,0,1-.09,3,3,0,0,0,.88-.3,1.92,1.92,0,0,0,.65-.58,1.52,1.52,0,0,0,.25-.9,1.89,1.89,0,0,0-.66-1.48,6.51,6.51,0,0,0-1.64-1,20.91,20.91,0,0,0-2.14-.81,14,14,0,0,1-2.14-.9,5.87,5.87,0,0,1-1.64-1.28,2.82,2.82,0,0,1-.67-2,3.7,3.7,0,0,1,1.21-3,4.46,4.46,0,0,1,3-1.05,9.79,9.79,0,0,1,2.65.36,11.56,11.56,0,0,0,2.64.43l.22,3.82h-.47a7.28,7.28,0,0,0-.9-1.31,6.76,6.76,0,0,0-1.21-1.12,6.36,6.36,0,0,0-1.42-.79,4,4,0,0,0-1.55-.31,3.24,3.24,0,0,0-1.62.4,1.65,1.65,0,0,0-.05,2.68,8.56,8.56,0,0,0,1.64.9c.65.28,1.36.55,2.14.81a11.64,11.64,0,0,1,2.14.95,6,6,0,0,1,1.64,1.37,3.08,3.08,0,0,1,.67,2,4.48,4.48,0,0,1-.42,2.07,3.2,3.2,0,0,1-1.13,1.28,4.87,4.87,0,0,1-1.67.66,9.54,9.54,0,0,1-2,.2,10.85,10.85,0,0,1-1.65-.12c-.53-.09-1-.19-1.5-.31l-1.31-.32c-.41-.1-.77-.17-1.08-.22Z"/><path class="cls-2" d="M421.24,154.9a8.3,8.3,0,0,0,.49,3.09,5.47,5.47,0,0,0,1.22,1.95,4.13,4.13,0,0,0,1.59,1,4.63,4.63,0,0,0,1.56.29,7.47,7.47,0,0,0,2.74-.48,7,7,0,0,0,2.27-1.53l.61.57a11.66,11.66,0,0,1-3,2.41,7.63,7.63,0,0,1-3.7.83,6.11,6.11,0,0,1-2.78-.61,6.64,6.64,0,0,1-2.08-1.62,7,7,0,0,1-1.32-2.3,8.14,8.14,0,0,1-.45-2.67,8,8,0,0,1,.45-2.66,7.06,7.06,0,0,1,1.32-2.31,6.64,6.64,0,0,1,2.08-1.62,6.24,6.24,0,0,1,2.78-.61,6.61,6.61,0,0,1,4.57,1.55,7.3,7.3,0,0,1,2.12,4.72Zm7-1.08a14.84,14.84,0,0,0-.29-1.75,3.45,3.45,0,0,0-.57-1.3,2.54,2.54,0,0,0-1-.79,4.31,4.31,0,0,0-1.65-.27,2.66,2.66,0,0,0-1.39.38,3.85,3.85,0,0,0-1.08,1,4.29,4.29,0,0,0-.68,1.33,4.66,4.66,0,0,0-.24,1.43Z"/><path class="cls-2" d="M460.73,146.33c.7,0,1.41.08,2.13.11l2.12,0c.63,0,1.25,0,1.87,0s1.25-.06,1.88-.11v.43a4,4,0,0,0-1.75.38,4.82,4.82,0,0,0-1.4,1,9,9,0,0,0-1.16,1.55c-.34.59-.69,1.22-1,1.89-.48,1-1,2-1.44,3a21.5,21.5,0,0,1-1.66,3,7.61,7.61,0,0,0,2.85,3.18,11.16,11.16,0,0,0,4.1,1.39v.43l-.94-.07c-.36,0-.73,0-1.11-.06h-2q-1,0-2,0c-.65,0-1.31.06-2,.11l-1.15-2.45a14.1,14.1,0,0,1-3.13,2.16,7.91,7.91,0,0,1-3.67.87,6.6,6.6,0,0,1-2.61-.51,6.24,6.24,0,0,1-2.09-1.38,6.53,6.53,0,0,1-1.39-2.09,6.85,6.85,0,0,1-.5-2.61,5.77,5.77,0,0,1,.63-2.72,7.73,7.73,0,0,1,1.64-2.14,9.91,9.91,0,0,1,2.3-1.59,14.52,14.52,0,0,1,2.59-1c-.45-.34-.93-.67-1.42-1a11.23,11.23,0,0,1-1.37-1.08,5.42,5.42,0,0,1-1-1.35,3.52,3.52,0,0,1-.42-1.73,3.74,3.74,0,0,1,.49-1.91,4.52,4.52,0,0,1,1.26-1.39,6.09,6.09,0,0,1,1.73-.86,6.37,6.37,0,0,1,1.92-.31,10.65,10.65,0,0,1,2.29.24,5.14,5.14,0,0,1,1.93.81,4.1,4.1,0,0,1,1.31,1.49,4.91,4.91,0,0,1,.49,2.29,3.72,3.72,0,0,1-1.32,3,5.81,5.81,0,0,1-1.37.9l-1.63.77a15.83,15.83,0,0,1,2.88,3.62c.76,1.33,1.51,2.68,2.23,4a13.19,13.19,0,0,0,.9-1.62c.33-.69.66-1.43,1-2.21a20.17,20.17,0,0,0,.77-2.31,7.21,7.21,0,0,0,.31-1.89,1.54,1.54,0,0,0-.58-1.33,4.38,4.38,0,0,0-1.44-.68Zm-12.88,9.54a5.35,5.35,0,0,0,.36,1.92,5,5,0,0,0,1.06,1.7,5.66,5.66,0,0,0,1.67,1.2,5.11,5.11,0,0,0,2.23.47,6.63,6.63,0,0,0,2.42-.5,6,6,0,0,0,2.08-1.34c-.33-.81-.66-1.65-1-2.5s-.67-1.69-1.06-2.52a22.78,22.78,0,0,0-1.28-2.39,14,14,0,0,0-1.6-2.16,7,7,0,0,0-3.54,2.18A5.8,5.8,0,0,0,447.85,155.87Zm2.62-11.81a3.38,3.38,0,0,0,.51,1.85,6,6,0,0,0,1.13,1.37,8.69,8.69,0,0,0,1.15.87,5.22,5.22,0,0,0,.56.3l.79-.48a4.72,4.72,0,0,0,.89-.67,3.35,3.35,0,0,0,.7-1,3.66,3.66,0,0,0,.29-1.55,6.55,6.55,0,0,0-.2-1.6,4.16,4.16,0,0,0-.61-1.35,3.24,3.24,0,0,0-1-.92,2.93,2.93,0,0,0-1.4-.34,2.29,2.29,0,0,0-1.21.31,2.47,2.47,0,0,0-.86.81,3.79,3.79,0,0,0-.53,1.13A4.65,4.65,0,0,0,450.47,144.06Z"/><path class="cls-2" d="M491.41,154.68c-.24-.6-.51-1.21-.81-1.82a7.76,7.76,0,0,0-1.08-1.64A5.46,5.46,0,0,0,488,150a3.9,3.9,0,0,0-2-.47,3.3,3.3,0,0,0-1.91.54,4.23,4.23,0,0,0-1.28,1.38,7,7,0,0,0-.72,1.91,10.17,10.17,0,0,0-.23,2.11,6.65,6.65,0,0,0,.39,2.27,6.33,6.33,0,0,0,1.12,1.92A5,5,0,0,0,485.2,161a5.15,5.15,0,0,0,2.28.49A6.47,6.47,0,0,0,490,161a11.17,11.17,0,0,0,2.27-1.24l.5.58a13.42,13.42,0,0,1-3.18,2,9,9,0,0,1-3.51.66,6.48,6.48,0,0,1-2.68-.57,7.36,7.36,0,0,1-2.24-1.55,7.78,7.78,0,0,1-1.53-2.29,6.89,6.89,0,0,1-.57-2.79,7,7,0,0,1,.57-2.79,7.73,7.73,0,0,1,1.53-2.28,7.19,7.19,0,0,1,2.24-1.55,6.34,6.34,0,0,1,2.68-.58,23.38,23.38,0,0,1,2.77.16q1.26.17,2.52.42l.47,5.47Z"/><path class="cls-2" d="M502.75,148.63a9.29,9.29,0,0,1,3.15.52,7.44,7.44,0,0,1,2.44,1.46,6.43,6.43,0,0,1,1.59,2.27,8.05,8.05,0,0,1,0,5.9,6.34,6.34,0,0,1-1.59,2.27,7.28,7.28,0,0,1-2.44,1.46,9.8,9.8,0,0,1-6.3,0,7.23,7.23,0,0,1-2.45-1.46,6.34,6.34,0,0,1-1.59-2.27,8.19,8.19,0,0,1,0-5.9,6.43,6.43,0,0,1,1.59-2.27,7.39,7.39,0,0,1,2.45-1.46A9.21,9.21,0,0,1,502.75,148.63Zm-.65,1.08a3,3,0,0,0-1.75.51,4,4,0,0,0-1.22,1.31,5.89,5.89,0,0,0-.72,1.84,8.86,8.86,0,0,0-.24,2,9,9,0,0,0,.31,2.3,6.83,6.83,0,0,0,.95,2.11,5.43,5.43,0,0,0,1.62,1.55,4.47,4.47,0,0,0,2.34.59,3,3,0,0,0,1.75-.5,4.18,4.18,0,0,0,1.22-1.32,5.91,5.91,0,0,0,.72-1.81,8.92,8.92,0,0,0,.24-2.06A8.38,8.38,0,0,0,507,154a7.12,7.12,0,0,0-1-2.13,5.18,5.18,0,0,0-1.62-1.54A4.28,4.28,0,0,0,502.1,149.71Z"/><path class="cls-2" d="M525.39,154.68c-.24-.6-.51-1.21-.81-1.82a7.76,7.76,0,0,0-1.08-1.64A5.32,5.32,0,0,0,522,150a3.9,3.9,0,0,0-2-.47,3.33,3.33,0,0,0-1.91.54,4.2,4.2,0,0,0-1.27,1.38,6.41,6.41,0,0,0-.72,1.91,9.55,9.55,0,0,0-.24,2.11,6.42,6.42,0,0,0,.4,2.27,6.11,6.11,0,0,0,1.11,1.92,5.09,5.09,0,0,0,1.75,1.33,5.16,5.16,0,0,0,2.29.49A6.54,6.54,0,0,0,524,161a11.1,11.1,0,0,0,2.26-1.24l.51.58a13.27,13.27,0,0,1-3.19,2,8.93,8.93,0,0,1-3.51.66,6.52,6.52,0,0,1-2.68-.57,7.31,7.31,0,0,1-2.23-1.55,7.41,7.41,0,0,1-1.53-2.29,7,7,0,0,1,0-5.58,7.37,7.37,0,0,1,1.53-2.28,7.14,7.14,0,0,1,2.23-1.55,6.37,6.37,0,0,1,2.68-.58,23.38,23.38,0,0,1,2.77.16q1.26.17,2.52.42l.47,5.47Z"/><path class="cls-2" d="M546.2,162.6c-.7,0-1.44-.08-2.24-.11s-1.59,0-2.41,0c-.55,0-1.08,0-1.6,0s-1,.06-1.49.11v-.43a5.49,5.49,0,0,0,1.78-.6,1.67,1.67,0,0,0,.63-1.56v-5.8a4.55,4.55,0,0,0-.78-2.84,3,3,0,0,0-2.5-1,4.68,4.68,0,0,0-1.26.18,5,5,0,0,0-1.19.49,4,4,0,0,0-.9.66,1,1,0,0,0-.36.69V160a1.61,1.61,0,0,0,.69,1.56,6.39,6.39,0,0,0,2,.6v.43c-.82,0-1.63-.08-2.43-.11s-1.61,0-2.43,0c-.55,0-1.09,0-1.6,0s-1,.06-1.6.11v-.43a5.77,5.77,0,0,0,1.87-.6,1.66,1.66,0,0,0,.65-1.56V141.65a13.25,13.25,0,0,0-.13-2,2.39,2.39,0,0,0-.43-1.11,1.41,1.41,0,0,0-.83-.49,8.47,8.47,0,0,0-1.31-.14v-.43l5.5-.62v13.94a15.44,15.44,0,0,1,2.24-1.44,5,5,0,0,1,2.41-.69,7.54,7.54,0,0,1,1.92.25,4.54,4.54,0,0,1,1.64.83,4,4,0,0,1,1.15,1.55,5.9,5.9,0,0,1,.44,2.41V160a1.65,1.65,0,0,0,.64,1.56,5.84,5.84,0,0,0,1.88.6Z"/><path class="cls-2" d="M550.37,153.49c0-.57,0-1.08,0-1.53a2.59,2.59,0,0,0-.33-1.11,2,2,0,0,0-.81-.74,4.19,4.19,0,0,0-1.47-.4v-.5l5.47-.36v10.58a5.82,5.82,0,0,0,.14,1.42,1.5,1.5,0,0,0,.49.8,2,2,0,0,0,.88.37,8.78,8.78,0,0,0,1.33.15v.43c-.84,0-1.68-.08-2.53-.11l-2.54,0q-.83,0-1.62,0c-.53,0-1.07.06-1.62.11v-.43a7.37,7.37,0,0,0,1.22-.15,1.87,1.87,0,0,0,.83-.37,1.54,1.54,0,0,0,.47-.8,5.82,5.82,0,0,0,.14-1.42Zm1-15.23a1.8,1.8,0,0,1,1.35.6,2,2,0,0,1,.55,1.38,2,2,0,0,1-.55,1.39,1.79,1.79,0,0,1-1.35.59,1.76,1.76,0,0,1-1.35-.59,1.94,1.94,0,0,1-.56-1.39,1.92,1.92,0,0,1,.56-1.38A1.77,1.77,0,0,1,551.42,138.26Z"/><path class="cls-2" d="M557.28,149.64l5.26-.79v1.91a15.31,15.31,0,0,1,2.23-1.44,5,5,0,0,1,2.41-.69,7.56,7.56,0,0,1,1.93.25,4.62,4.62,0,0,1,1.64.83,4.09,4.09,0,0,1,1.15,1.55,5.91,5.91,0,0,1,.43,2.41V160a1.66,1.66,0,0,0,.65,1.56,5.77,5.77,0,0,0,1.87.6v.43c-.69,0-1.44-.08-2.23-.11s-1.6,0-2.41,0c-.55,0-1.09,0-1.6,0s-1,.06-1.5.11v-.43a5.41,5.41,0,0,0,1.78-.6,1.67,1.67,0,0,0,.63-1.56v-5.8a4.55,4.55,0,0,0-.77-2.84,3,3,0,0,0-2.5-1,4.68,4.68,0,0,0-1.26.18,5,5,0,0,0-1.19.49,4,4,0,0,0-.9.66,1,1,0,0,0-.36.69V160a1.63,1.63,0,0,0,.68,1.56,6.46,6.46,0,0,0,2.06.6v.43c-.82,0-1.63-.08-2.43-.11s-1.62,0-2.43,0c-.56,0-1.09,0-1.61,0s-1,.06-1.6.11v-.43a5.69,5.69,0,0,0,1.87-.6,1.64,1.64,0,0,0,.65-1.56v-8.35c0-.72-.24-1.17-.74-1.34a5.5,5.5,0,0,0-1.71-.25Z"/></svg>