<svg id="Layer_1" data-name="Layer 1" xmlns="http://www.w3.org/2000/svg" viewBox="0 0 700 300"><defs><style>.cls-1{fill:#333745;}.cls-2{fill:#83a0a0;}</style></defs><title>danbing</title><rect class="cls-1" width="700" height="300"/><path class="cls-2" d="M227.91,156.23a7.08,7.08,0,0,1-4.86,2,6.71,6.71,0,0,1-6.88-6.88,7.73,7.73,0,0,1,7.38-7.59,6.15,6.15,0,0,1,4.21,1.4v-7c0-2.31-.1-2.6-1.33-2.6-.79,0-.93-.07-.93-.32s.21-.29.75-.47c1-.32,3.28-1.11,3.6-1.11s.43.07.43.39V155.8c0,.68.26.86.69.86a6.49,6.49,0,0,0,1-.22c.14,0,.18.18.18.33s-.08.29-.47.43c-.69.25-2.59.68-3.78,1Zm-.15-6.73c0-3.46-1.08-5-3.92-5-3.17,0-5,2.66-5,6.44,0,4,2.34,6.44,4.82,6.44a5.19,5.19,0,0,0,4-2.19,8.14,8.14,0,0,0,.14-2.38Z"/><path class="cls-2" d="M243,147.7c0-2.49-.93-3.1-2.45-3.1-3.31,0-1.94,3.71-4.06,3.71a.93.93,0,0,1-1-1c0-1.34,3.24-3.6,6-3.6,2.42,0,4.07,1.22,4.07,4.32v7.88c0,.83.51,1,.9,1a1.74,1.74,0,0,0,1.26-.54l.36.4a3.55,3.55,0,0,1-2.81,1.37,2.19,2.19,0,0,1-2.23-2.13,7.1,7.1,0,0,1-4.71,2.13c-2.06,0-3.49-1.23-3.49-2.81,0-2.48,2.05-3.2,6.26-4.28l1.94-.51Zm0,3.49-1.44.36c-2.7.68-4.1,1.51-4.1,3a2.21,2.21,0,0,0,2.37,2.41,5.49,5.49,0,0,0,3.17-1.47Z"/><path class="cls-2" d="M249.94,157.34c1.95,0,2.38-.5,2.38-3.24v-6.73c0-.83-.18-1-.87-1.4-.29-.18-.43-.25-.43-.47s.22-.4.61-.61a8.59,8.59,0,0,1,2.67-1.37.38.38,0,0,1,.39.43v1.48a8.05,8.05,0,0,1,4.79-1.69c2.12,0,4.93.79,4.93,5v5.36c0,2.74.43,3.24,2.12,3.24v.58h-6.76v-.58c1.69,0,2.12-.5,2.12-3.24v-4.75c0-2.91-1.26-4.39-3.74-4.39a4.74,4.74,0,0,0-3.31,1.8v7.34c0,2.74.43,3.24,2.19,3.24v.58h-7.09Z"/><path class="cls-2" d="M280.86,133.59V145.9a6.26,6.26,0,0,1,4.65-2.16c3.09,0,6.55,2.08,6.55,7a7.23,7.23,0,0,1-7.52,7.45,34.86,34.86,0,0,1-4-.58,8,8,0,0,0-1.95.58.27.27,0,0,1-.29-.29V137.8c0-1.12-.28-1.26-.93-1.59s-.65-.32-.65-.46v-.4c0-.29.18-.43.54-.58l3-1.18Zm0,19.87c0,2.87,1.84,4,3.82,4,2.77,0,4.5-2,4.5-6,0-4.17-1.8-6.55-4.61-6.55a5.38,5.38,0,0,0-3.71,1.84Z"/><path class="cls-2" d="M294.33,157.34c1.65,0,2.09-.5,2.09-3.16v-4.94c0-2.48-.15-3-1.19-3.13-.58-.07-.76-.18-.76-.47s.18-.46.51-.61c.64-.21,3.16-1.29,3.56-1.29s.43.18.43.39c0,.36,0,1.51,0,2.7v7.35c0,2.66.43,3.16,2.12,3.16v.58h-6.73Zm3.35-22.53a1.55,1.55,0,1,1-1.55,1.55A1.53,1.53,0,0,1,297.68,134.81Z"/><path class="cls-2" d="M303.26,157.34c1.94,0,2.37-.5,2.37-3.24v-6.73c0-.83-.18-1-.86-1.4-.29-.18-.43-.25-.43-.47s.21-.4.61-.61a8.47,8.47,0,0,1,2.66-1.37.39.39,0,0,1,.4.43v1.48a8,8,0,0,1,4.78-1.69c2.13,0,4.94.79,4.94,5v5.36c0,2.74.43,3.24,2.12,3.24v.58h-6.77v-.58c1.69,0,2.13-.5,2.13-3.24v-4.75c0-2.91-1.26-4.39-3.75-4.39a4.78,4.78,0,0,0-3.31,1.8v7.34c0,2.74.43,3.24,2.2,3.24v.58h-7.09Z"/><path class="cls-2" d="M329.25,154.07a5.62,5.62,0,0,1-1.62-.18c-.94.65-2.13,1.11-2.13,1.94,0,1,1.12,1.23,7.42,1.51,2.59.11,3.67,1.23,3.67,3.13,0,4.68-4.57,5.94-8.6,5.94-2.74,0-6.3-.64-6.3-3,0-1.69,1.22-2.56,4.1-4-1.47-.72-2.48-1.94-2.48-3s1.73-1.69,3.35-2.92a5,5,0,0,1-3.35-4.71c0-3.14,2.34-5,5.65-5,2.27,0,4.21.86,4.89.86s1.8-.43,2.81-.43c.83,0,1.23.21,1.23.75s-.44,1-1.16,1-1.11-.44-1.69-.44a.71.71,0,0,0-.79.76c0,1,.47,1.15.47,2.84C334.72,152,332,154.07,329.25,154.07Zm-.15,11.62c2.92,0,5.69-1.29,5.69-3.92,0-1.51-1.26-2.12-7.63-2.12-1.4.54-3,1.62-3,3.31S326.44,165.69,329.1,165.69Zm-.39-21.23c-1.91,0-3.1,1.69-3.1,4.14,0,2.66,1.26,4.75,3.71,4.75,1.91,0,3.09-1.23,3.09-3.53C332.41,146.8,331.16,144.46,328.71,144.46Z"/><path class="cls-2" d="M365.17,146v.72c-1.33.25-2,.39-2.63,1.19-.86,1.15-1.36,3.16-2.3,5.11.54.65,2.12,3.06,3.46,3.06,1.08,0,1.22-1.3,1.65-1.3.25,0,.36.11.36.33s-.93,3.13-2.73,3.13c-1.51,0-3.17-2.05-4-3.17-1.77,2-3.32,3.17-6.27,3.17-3.6,0-5.29-2.56-5.29-4.72,0-2.37,1.15-4.25,4-6.51-1.05-.9-1.95-1.95-1.95-3,0-1.83,1.84-4.53,4.29-4.53a2.16,2.16,0,0,1,2.41,2.27c0,1.54-.83,2.87-2.31,4.49,1.26,1.41,4.29,4.29,5.69,5.91C360,151.26,361,149,361,148c0-.61-.65-1.19-2.19-1.26V146Zm-11.12,10.51a5.63,5.63,0,0,0,4.18-2.27c-.76-.93-4.5-5.11-6.16-6.69-2.12,1.51-2.88,3.24-2.88,4.39C349.19,154.64,352.07,156.48,354.05,156.48Zm-.9-10.91c.54-.43,1.91-1.44,1.91-2.95a1.93,1.93,0,0,0-1.84-2.12,2.4,2.4,0,0,0-2.41,2.26C350.81,143.92,352.11,144.92,353.15,145.57Z"/><path class="cls-2" d="M383.21,154.07a5.67,5.67,0,0,1-1.62-.18c-.94.65-2.12,1.11-2.12,1.94,0,1,1.11,1.23,7.41,1.51,2.59.11,3.67,1.23,3.67,3.13,0,4.68-4.57,5.94-8.6,5.94-2.74,0-6.3-.64-6.3-3,0-1.69,1.22-2.56,4.1-4-1.47-.72-2.48-1.94-2.48-3s1.73-1.69,3.35-2.92a5,5,0,0,1-3.35-4.71c0-3.14,2.34-5,5.65-5,2.27,0,4.21.86,4.9.86s1.8-.43,2.8-.43c.83,0,1.23.21,1.23.75s-.43,1-1.15,1-1.12-.44-1.7-.44a.71.71,0,0,0-.79.76c0,1,.47,1.15.47,2.84C388.68,152,385.94,154.07,383.21,154.07Zm-.14,11.62c2.91,0,5.68-1.29,5.68-3.92,0-1.51-1.26-2.12-7.63-2.12-1.4.54-2.95,1.62-2.95,3.31S380.4,165.69,383.07,165.69Zm-.4-21.23c-1.91,0-3.1,1.69-3.1,4.14,0,2.66,1.26,4.75,3.71,4.75,1.91,0,3.1-1.23,3.1-3.53C386.38,146.8,385.12,144.46,382.67,144.46Z"/><path class="cls-2" d="M393.83,157.34c1.73,0,2.16-.5,2.16-3.24v-6.4c0-.87-.18-1.23-.86-1.55-.51-.25-.69-.29-.69-.51s.29-.39,1.66-1c1.58-.69,1.65-1.12,2-1.12s.36.14.36.4v1.18c0,.29.14.44.36.44s2.12-1.8,4-1.8c1,0,1.58.43,1.58,1.26,0,.64-.39,1.22-1.65,1.22-.47,0-1.34-.11-2-.11-1.3,0-2.27.65-2.27,2.59v5.91c0,2.23.4,2.66,2.23,2.73v.58h-6.91Z"/><path class="cls-2" d="M414.92,147.7c0-2.49-.93-3.1-2.44-3.1-3.32,0-2,3.71-4.07,3.71a.93.93,0,0,1-1-1c0-1.34,3.23-3.6,6-3.6,2.41,0,4.06,1.22,4.06,4.32v7.88c0,.83.51,1,.9,1a1.74,1.74,0,0,0,1.26-.54l.36.4a3.53,3.53,0,0,1-2.8,1.37,2.2,2.2,0,0,1-2.24-2.13,7.08,7.08,0,0,1-4.71,2.13c-2,0-3.49-1.23-3.49-2.81,0-2.48,2-3.2,6.26-4.28l1.94-.51Zm0,3.49-1.44.36c-2.7.68-4.1,1.51-4.1,3a2.22,2.22,0,0,0,2.38,2.41,5.49,5.49,0,0,0,3.16-1.47Z"/><path class="cls-2" d="M421.87,157.34c1.95,0,2.38-.5,2.38-3.24v-6.73c0-.83-.18-1-.86-1.4-.29-.18-.44-.25-.44-.47s.22-.4.62-.61a8.47,8.47,0,0,1,2.66-1.37.38.38,0,0,1,.39.43v1.48a8.08,8.08,0,0,1,4.79-1.69c2.13,0,4.93.79,4.93,5v5.36c0,2.74.44,3.24,2.13,3.24v.58H431.7v-.58c1.69,0,2.12-.5,2.12-3.24v-4.75c0-2.91-1.26-4.39-3.74-4.39a4.74,4.74,0,0,0-3.31,1.8v7.34c0,2.74.43,3.24,2.19,3.24v.58h-7.09Z"/><path class="cls-2" d="M440.92,165.84a4.6,4.6,0,0,0,3-4.68V150.58c0-3.24-.72-4.11-2.52-4.4-.21,0-.47-.1-.47-.39s.18-.25.44-.36a37.83,37.83,0,0,1,4.35-1.69c.4,0,.72.21.72,1.08V159a7.35,7.35,0,0,1-5.54,7.38Zm4.82-29.48a1.55,1.55,0,1,1-1.55-1.55A1.54,1.54,0,0,1,445.74,136.36Z"/><path class="cls-2" d="M465.29,151a7.31,7.31,0,1,1-7.31-7.23A7.11,7.11,0,0,1,465.29,151Zm-11.74,0c0,3.42.94,6.52,4.43,6.52s4.43-3.1,4.43-6.52-.94-6.51-4.43-6.51S453.55,147.55,453.55,151Z"/><path class="cls-2" d="M467.23,157.34c1.95,0,2.38-.5,2.38-3.24v-6.73c0-.83-.18-1-.87-1.4-.28-.18-.43-.25-.43-.47s.22-.4.62-.61a8.47,8.47,0,0,1,2.66-1.37.38.38,0,0,1,.39.43v1.48a8.08,8.08,0,0,1,4.79-1.69c2.13,0,4.93.79,4.93,5v5.36c0,2.74.44,3.24,2.13,3.24v.58h-6.77v-.58c1.69,0,2.12-.5,2.12-3.24v-4.75c0-2.91-1.26-4.39-3.74-4.39a4.74,4.74,0,0,0-3.31,1.8v7.34c0,2.74.43,3.24,2.19,3.24v.58h-7.09Z"/></svg>