<svg id="Layer_1" data-name="Layer 1" xmlns="http://www.w3.org/2000/svg" viewBox="0 0 700 300"><defs><style>.cls-1{fill:#ada8b6;}.cls-2{fill:#f1e9e6;}</style></defs><title>ddchardware</title><rect class="cls-1" width="700" height="300"/><path class="cls-2" d="M116.47,158.51h4.72c.21,0,.28-.14.28-.32v-6.08c0-.18-.07-.33-.28-.33h-2.27a2.37,2.37,0,0,1-2.45-2.48v-9a2.38,2.38,0,0,1,2.45-2.48h6.37v3.49h-4.57c-.15,0-.25.18-.25.4v5.94c0,.14.1.32.25.32H123a2.41,2.41,0,0,1,2.49,2.49v9.18a2.41,2.41,0,0,1-2.49,2.48h-6.55Z"/><path class="cls-2" d="M133.53,155.42v6.73h-4.1v-24.3h8.17a2.8,2.8,0,0,1,3,3v11.59a2.78,2.78,0,0,1-3,3Zm2.7-3.39c.15,0,.26-.18.26-.32v-10c0-.18-.11-.36-.26-.36h-2.7V152Z"/><path class="cls-2" d="M155.46,162.15h-4v-7.06h-2.88v7.06h-4V140.33a2.37,2.37,0,0,1,2.44-2.48H153a2.39,2.39,0,0,1,2.49,2.48Zm-4-10.4v-9.83a.49.49,0,0,0-.5-.54h-1.87a.5.5,0,0,0-.51.54v9.83Z"/><path class="cls-2" d="M162.91,162.33a2.75,2.75,0,0,1-2.92-3V140.62a2.74,2.74,0,0,1,2.92-3h7.74v3.78h-6.34c-.1,0-.25.17-.25.39v16.42a.33.33,0,0,0,.25.35h2.38c.18,0,.29-.14.29-.35v-7.49h-1.37v-3.42h6.19v3.42h-1.19v8.64a2.78,2.78,0,0,1-3,3Z"/><path class="cls-2" d="M175.37,162.15v-24.3h4v10.69h3.31V137.85h4v24.3h-4V151.89h-3.31v10.26Z"/><path class="cls-2" d="M191.64,137.85h9v3.49h-4.89v6.84h4v3.39h-4v7.09h4.89v3.49h-9Z"/><path class="cls-2" d="M209.71,141.34v20.81h-4V141.34h-3.06v-3.49h10.15v3.49Z"/><path class="cls-2" d="M221,141.34v20.81h-4V141.34h-3.06v-3.49h10.15v3.49Z"/><path class="cls-2" d="M231,162.15h-3.85v-24.3H231Z"/><path class="cls-2" d="M252.12,153.08v6.33a2.74,2.74,0,0,1-2.88,3h-5a2.78,2.78,0,0,1-2.92-3V140.62a2.78,2.78,0,0,1,2.92-3h5a2.73,2.73,0,0,1,2.88,3v6.23h-4v-5.29c0-.22-.14-.4-.25-.4H245.6c-.14,0-.25.18-.25.4v16.92c0,.21.11.36.25.36h2.23c.11,0,.25-.69.25-.9v-4.86Z"/><path class="cls-2" d="M266.66,162.15h-4v-7.06h-2.88v7.06h-4V140.33a2.38,2.38,0,0,1,2.45-2.48h5.94a2.38,2.38,0,0,1,2.48,2.48Zm-4-10.4v-9.83a.49.49,0,0,0-.5-.54h-1.87a.5.5,0,0,0-.51.54v9.83Z"/><path class="cls-2" d="M276.85,154.05h-1.37v8.1h-4.07v-24.3h8.17a2.76,2.76,0,0,1,2.92,3v10.22a2.78,2.78,0,0,1-1.8,2.81l1.83,8.28h-4Zm1.69-12.35c0-.18-.14-.36-.25-.36h-2.81v9.36h2.81c.11,0,.25-.18.25-.32Z"/><path class="cls-2" d="M286.93,162.15v-24.3h8.78a2.35,2.35,0,0,1,2.45,2.45v6.8A2.59,2.59,0,0,1,295.6,150a2.62,2.62,0,0,1,2.49,2.77v7a2.34,2.34,0,0,1-2.41,2.45ZM294.06,142a.54.54,0,0,0-.58-.58H291v6.7h2.48a.54.54,0,0,0,.58-.58Zm0,10.08a.54.54,0,0,0-.58-.58H291v7h2.48a.53.53,0,0,0,.58-.54Z"/><path class="cls-2" d="M311.16,137.64a2.4,2.4,0,0,1,2.48,2.48v19.72a2.41,2.41,0,0,1-2.48,2.49h-6.23a2.39,2.39,0,0,1-2.49-2.49V140.12a2.38,2.38,0,0,1,2.49-2.48Zm-1.59,3.78c0-.22-.14-.4-.21-.4h-2.67c-.18,0-.18.25-.18.4v17.09c0,.11,0,.33.18.33h2.67c.07,0,.21-.15.21-.33Z"/><path class="cls-2" d="M321.81,148.47v13.68h-3.42v-24.3h3.39l4.6,14.62V137.85h3.42v24.3h-3.34Z"/><path class="cls-2" d="M345.43,162.15h-4v-7.06h-2.88v7.06h-4V140.33a2.37,2.37,0,0,1,2.44-2.48h5.94a2.39,2.39,0,0,1,2.49,2.48Zm-4-10.4v-9.83a.5.5,0,0,0-.5-.54h-1.88a.5.5,0,0,0-.5.54v9.83Z"/><path class="cls-2" d="M355.61,154.05h-1.36v8.1h-4.07v-24.3h8.17a2.76,2.76,0,0,1,2.92,3v10.22a2.78,2.78,0,0,1-1.8,2.81l1.83,8.28h-4Zm1.7-12.35c0-.18-.15-.36-.26-.36h-2.8v9.36h2.8c.11,0,.26-.18.26-.32Z"/><path class="cls-2" d="M376.35,162.15h-4v-7.06h-2.88v7.06h-4V140.33a2.38,2.38,0,0,1,2.45-2.48h5.94a2.38,2.38,0,0,1,2.48,2.48Zm-4-10.4v-9.83a.49.49,0,0,0-.5-.54H370a.5.5,0,0,0-.51.54v9.83Z"/><path class="cls-2" d="M389.27,162.15a2.7,2.7,0,0,1-2.84-2.85v-5.47a3.31,3.31,0,0,1,3.35-3.56,3.26,3.26,0,0,1-3.35-3.46V140.7a2.7,2.7,0,0,1,2.84-2.85H395a2.71,2.71,0,0,1,2.85,2.85V145h-4.07v-3.24a.46.46,0,0,0-.51-.5H391a.45.45,0,0,0-.5.5V148a.45.45,0,0,0,.5.5h9.22v3.28H398v7.48a2.71,2.71,0,0,1-2.85,2.85Zm4.65-3.89v-6.44H391a.45.45,0,0,0-.5.5v5.94a.45.45,0,0,0,.5.5h2.41A.46.46,0,0,0,393.92,158.26Z"/><path class="cls-2" d="M416.63,137.85A3.15,3.15,0,0,1,420,141.2v17.6a3.15,3.15,0,0,1-3.35,3.35h-7.84v-24.3Zm-.72,4.07a.54.54,0,0,0-.57-.58h-2.49v17.32h2.49a.54.54,0,0,0,.57-.58Z"/><path class="cls-2" d="M432.58,137.85a3.15,3.15,0,0,1,3.35,3.35v17.6a3.15,3.15,0,0,1-3.35,3.35h-7.85v-24.3Zm-.72,4.07a.54.54,0,0,0-.57-.58H428.8v17.32h2.49a.54.54,0,0,0,.57-.58Z"/><path class="cls-2" d="M451.3,153.08v6.33a2.74,2.74,0,0,1-2.88,3h-5a2.78,2.78,0,0,1-2.91-3V140.62a2.77,2.77,0,0,1,2.91-3h5a2.73,2.73,0,0,1,2.88,3v6.23h-4v-5.29c0-.22-.14-.4-.25-.4h-2.23c-.15,0-.26.18-.26.4v16.92c0,.21.11.36.26.36H447c.11,0,.25-.69.25-.9v-4.86Z"/><path class="cls-2" d="M460.73,162.15v-24.3h4v10.69H468V137.85h4v24.3h-4V151.89h-3.31v10.26Z"/><path class="cls-2" d="M487.66,162.15h-4v-7.06h-2.88v7.06h-4V140.33a2.38,2.38,0,0,1,2.45-2.48h5.94a2.38,2.38,0,0,1,2.48,2.48Zm-4-10.4v-9.83a.5.5,0,0,0-.51-.54h-1.87a.49.49,0,0,0-.5.54v9.83Z"/><path class="cls-2" d="M497.85,154.05h-1.37v8.1h-4.07v-24.3h8.17a2.76,2.76,0,0,1,2.92,3v10.22a2.77,2.77,0,0,1-1.8,2.81l1.84,8.28h-4Zm1.69-12.35c0-.18-.14-.36-.25-.36h-2.81v9.36h2.81c.11,0,.25-.18.25-.32Z"/><path class="cls-2" d="M515.78,137.85a3.15,3.15,0,0,1,3.34,3.35v17.6a3.15,3.15,0,0,1-3.34,3.35h-7.85v-24.3Zm-.72,4.07a.55.55,0,0,0-.58-.58H512v17.32h2.48a.55.55,0,0,0,.58-.58Z"/><path class="cls-2" d="M528.81,162.15h-3.42l-3.17-24.3H526l1.47,15.73,2-15.73h3.38l2,15.84,1.51-15.84H540l-3.13,24.3h-3.38L531.15,146Z"/><path class="cls-2" d="M554.3,162.15h-4v-7.06h-2.88v7.06h-4V140.33a2.37,2.37,0,0,1,2.44-2.48h5.94a2.39,2.39,0,0,1,2.49,2.48Zm-4-10.4v-9.83a.5.5,0,0,0-.5-.54h-1.87a.5.5,0,0,0-.51.54v9.83Z"/><path class="cls-2" d="M564.48,154.05h-1.36v8.1h-4.07v-24.3h8.17a2.76,2.76,0,0,1,2.92,3v10.22a2.78,2.78,0,0,1-1.8,2.81l1.83,8.28h-4Zm1.7-12.35c0-.18-.15-.36-.26-.36h-2.8v9.36h2.8c.11,0,.26-.18.26-.32Z"/><path class="cls-2" d="M574.57,137.85h9v3.49h-4.9v6.84h4v3.39h-4v7.09h4.9v3.49h-9Z"/></svg>