<svg id="Layer_1" data-name="Layer 1" xmlns="http://www.w3.org/2000/svg" viewBox="0 0 700 300"><defs><style>.cls-1{fill:#eaefd3;}.cls-2{fill:#333745;}</style></defs><title>futura</title><rect class="cls-1" width="700" height="300"/><path class="cls-2" d="M162.15,146.05h-3v-2.26h3V137.3H165v6.49h3v2.26h-3v13.82h-2.81Z"/><path class="cls-2" d="M171.05,159.87V132.62h2.69v13.64a6.8,6.8,0,0,1,2.49-2.3,7.29,7.29,0,0,1,3.38-.75,6.19,6.19,0,0,1,4.44,1.51,5.49,5.49,0,0,1,1.6,4.2v11h-2.81V150.4a5.45,5.45,0,0,0-1-3.64,4,4,0,0,0-3.17-1.18,5.43,5.43,0,0,0-2.24.45,4.44,4.44,0,0,0-1.68,1.27,3.93,3.93,0,0,0-.73,1.44,12.09,12.09,0,0,0-.22,2.82v8.31Z"/><path class="cls-2" d="M206.08,143.79v16.08h-2.67V157a7.06,7.06,0,0,1-2.47,2.68,6.28,6.28,0,0,1-3.37.93,7.1,7.1,0,0,1-5.58-2.39,9.13,9.13,0,0,1-2.12-6.3,9.26,9.26,0,0,1,2.06-6.32,7,7,0,0,1,5.5-2.34,6.64,6.64,0,0,1,3.51.9,6.49,6.49,0,0,1,2.4,2.7v-3ZM203.41,152a6.35,6.35,0,0,0-1.49-4.39,5.49,5.49,0,0,0-7.74-.13,6.1,6.1,0,0,0-1.39,4.27,6.57,6.57,0,0,0,1.4,4.5,5.68,5.68,0,0,0,7.82,0A6.14,6.14,0,0,0,203.41,152Z"/><path class="cls-2" d="M211.07,136a1.93,1.93,0,0,1,.59-1.41,2,2,0,0,1,1.43-.59,1.92,1.92,0,0,1,1.42.6,2,2,0,0,1,.59,1.44,2,2,0,0,1-2,2,2,2,0,0,1-2-2Zm.65,23.84V143.79h2.78v16.08Z"/><path class="cls-2" d="M245.89,143.79v15.8a13.61,13.61,0,0,1-.35,3.73,5.18,5.18,0,0,1-1.16,2,7,7,0,0,1-2.75,1.81,10.73,10.73,0,0,1-3.73.6,8.83,8.83,0,0,1-5.71-1.67,6,6,0,0,1-2.13-4.73h3.09v.21a3.37,3.37,0,0,0,1.25,2.8,5.62,5.62,0,0,0,3.53,1,6.69,6.69,0,0,0,2.82-.54,3.81,3.81,0,0,0,1.79-1.59,4.13,4.13,0,0,0,.52-1.38,12,12,0,0,0,.16-2.27v-2.71a6.81,6.81,0,0,1-2.44,2.65,6.43,6.43,0,0,1-3.39.92A7.18,7.18,0,0,1,231.8,158a10.43,10.43,0,0,1-.06-12.5,7,7,0,0,1,5.51-2.31,6.74,6.74,0,0,1,3.51.9,6.21,6.21,0,0,1,2.39,2.66v-3Zm-2.67,8.08a6.32,6.32,0,0,0-1.47-4.36,5.53,5.53,0,0,0-7.76-.12,6.15,6.15,0,0,0-1.39,4.27,6.57,6.57,0,0,0,1.4,4.5,5,5,0,0,0,4,1.58,4.92,4.92,0,0,0,3.85-1.55A6.21,6.21,0,0,0,243.22,151.87Z"/><path class="cls-2" d="M251.5,159.87V143.79h2.44v3.34a8.54,8.54,0,0,1,2.36-3,5.06,5.06,0,0,1,3-.9,5.8,5.8,0,0,1,1,.08,5.1,5.1,0,0,1,.91.24l-.91,2.48a6.06,6.06,0,0,0-.9-.24,4.63,4.63,0,0,0-.81-.08,3.69,3.69,0,0,0-3.26,1.57,8.34,8.34,0,0,0-1.09,4.74v7.84Z"/><path class="cls-2" d="M278.47,152.24H265.72v.25a5.86,5.86,0,0,0,1.48,4.17,5,5,0,0,0,3.85,1.59,5.14,5.14,0,0,0,2.92-.87,7.63,7.63,0,0,0,2.3-2.63l2.09,1.41a8.56,8.56,0,0,1-3.09,3.29,8.44,8.44,0,0,1-4.36,1.11,7.74,7.74,0,0,1-5.94-2.43,8.91,8.91,0,0,1-2.27-6.36,8.7,8.7,0,0,1,2.25-6.19,7.55,7.55,0,0,1,5.78-2.41,7.25,7.25,0,0,1,5.65,2.29,8.9,8.9,0,0,1,2.09,6.24Zm-3-2.23a4.61,4.61,0,0,0-1.41-3.28,5,5,0,0,0-3.49-1.15,4.7,4.7,0,0,0-4.89,4.43Z"/><path class="cls-2" d="M297,152.24H284.23v.25a5.86,5.86,0,0,0,1.48,4.17,5,5,0,0,0,3.85,1.59,5.14,5.14,0,0,0,2.92-.87,7.63,7.63,0,0,0,2.3-2.63l2.09,1.41a8.56,8.56,0,0,1-3.09,3.29,8.44,8.44,0,0,1-4.36,1.11,7.74,7.74,0,0,1-5.94-2.43,8.91,8.91,0,0,1-2.27-6.36,8.7,8.7,0,0,1,2.25-6.19,7.55,7.55,0,0,1,5.78-2.41,7.25,7.25,0,0,1,5.65,2.29A8.9,8.9,0,0,1,297,151.7ZM294,150a4.61,4.61,0,0,0-1.41-3.28,5,5,0,0,0-3.49-1.15,4.7,4.7,0,0,0-4.89,4.43Z"/><path class="cls-2" d="M301.12,159.87V143.79h2.69v2.47a6.82,6.82,0,0,1,2.5-2.3,7.27,7.27,0,0,1,3.37-.75,6.2,6.2,0,0,1,4.45,1.51,5.49,5.49,0,0,1,1.6,4.2v11h-2.81V150.4a5.45,5.45,0,0,0-1-3.64,4,4,0,0,0-3.17-1.18,5.43,5.43,0,0,0-2.24.45,4.36,4.36,0,0,0-1.68,1.27,3.78,3.78,0,0,0-.73,1.44,12.09,12.09,0,0,0-.22,2.82v8.31Z"/><path class="cls-2" d="M344.14,156.06v3.19a8.73,8.73,0,0,1-2.45,1,12.51,12.51,0,0,1-2.95.33,8,8,0,0,1-6-2.37,8.58,8.58,0,0,1-2.28-6.21,8.74,8.74,0,0,1,2.36-6.32,8,8,0,0,1,6-2.45,11.93,11.93,0,0,1,2.61.28,10.62,10.62,0,0,1,2.4.82v3a9.09,9.09,0,0,0-2.18-1.05,7.45,7.45,0,0,0-2.29-.36,5.72,5.72,0,0,0-4.34,1.7,6.21,6.21,0,0,0-1.63,4.51,5.64,5.64,0,0,0,1.64,4.14,5.51,5.51,0,0,0,4.12,1.67,6.83,6.83,0,0,0,2.44-.44A10.6,10.6,0,0,0,344.14,156.06Z"/><path class="cls-2" d="M350.55,143.79v7.91c0,2.3.35,3.92,1,4.84a5.07,5.07,0,0,0,6.93,0c.67-.91,1-2.53,1-4.86v-7.91h2.81v9.38a7.5,7.5,0,0,1-1.86,5.51,7.41,7.41,0,0,1-5.49,1.88,7.34,7.34,0,0,1-5.45-1.89,7.49,7.49,0,0,1-1.86-5.5v-9.38Z"/><path class="cls-2" d="M367.69,159.87V143.79h2.45v3.34a8.42,8.42,0,0,1,2.35-3,5.06,5.06,0,0,1,3-.9,5.8,5.8,0,0,1,1,.08,5.2,5.2,0,0,1,.92.24l-.92,2.48a5.48,5.48,0,0,0-.9-.24,4.61,4.61,0,0,0-.8-.08,3.69,3.69,0,0,0-3.27,1.57,8.34,8.34,0,0,0-1.09,4.74v7.84Z"/><path class="cls-2" d="M380.33,159.87V143.79h2.44v3.34a8.54,8.54,0,0,1,2.36-3,5.06,5.06,0,0,1,3-.9,5.8,5.8,0,0,1,.95.08,5.1,5.1,0,0,1,.91.24l-.91,2.48a6.06,6.06,0,0,0-.9-.24,4.61,4.61,0,0,0-.8-.08,3.69,3.69,0,0,0-3.27,1.57,8.34,8.34,0,0,0-1.09,4.74v7.84Z"/><path class="cls-2" d="M392.28,167.71l4.36-9.42-6.31-14.5h3.18l4.68,11.54,5-11.54h3l-10.79,23.92Z"/><path class="cls-2" d="M436,159.87l-2.48-3a12.11,12.11,0,0,1-3.66,2.59,10.11,10.11,0,0,1-4.16.87,7.61,7.61,0,0,1-5.52-2,7.29,7.29,0,0,1-.64-9.52,14.44,14.44,0,0,1,4.44-3.66L422.94,144a7.44,7.44,0,0,1-1.25-2,6.12,6.12,0,0,1-.4-2.25,5,5,0,0,1,1.64-3.89,6.09,6.09,0,0,1,4.26-1.5,6,6,0,0,1,4.25,1.47,5.1,5.1,0,0,1,1.59,3.92,5.69,5.69,0,0,1-1.12,3.44,12,12,0,0,1-3.56,3l5.61,6.77a22.27,22.27,0,0,0,1.46-1.77c.5-.66,1-1.4,1.6-2.24l1.88,2.06c-.5.76-1,1.47-1.57,2.14a21.74,21.74,0,0,1-1.72,1.85l4.12,4.94Zm-4.19-5.08-6.22-7.52-.75.51a11.07,11.07,0,0,0-2.91,2.6,4.38,4.38,0,0,0-.8,2.58,4.63,4.63,0,0,0,1.34,3.39,4.54,4.54,0,0,0,3.37,1.36,6.51,6.51,0,0,0,2.88-.71A13.12,13.12,0,0,0,431.83,154.79Zm-5.15-10.69,1.13-.65a5.52,5.52,0,0,0,1.8-1.67,3.62,3.62,0,0,0,.61-2,2.83,2.83,0,0,0-.83-2.12,3,3,0,0,0-2.2-.79,3,3,0,0,0-2.18.84,2.91,2.91,0,0,0-.84,2.14,3.45,3.45,0,0,0,.24,1.27,4,4,0,0,0,.69,1.14Z"/><path class="cls-2" d="M454.81,159.87V146.05h-3.09v-2.26h3.09v-4.66q0-4,1-5.43t3.63-1.41a8.22,8.22,0,0,1,1.24.09,6,6,0,0,1,1.13.28v2.85a4.18,4.18,0,0,0-1.06-.44,4,4,0,0,0-1.1-.14,1.77,1.77,0,0,0-1.67.77,9.49,9.49,0,0,0-.46,3.8v4.29h4.29v2.26H457.6v13.82Z"/><path class="cls-2" d="M467.08,143.79v7.91c0,2.3.34,3.92,1,4.84a5.05,5.05,0,0,0,6.92,0c.68-.91,1-2.53,1-4.86v-7.91h2.82v9.38a6.58,6.58,0,0,1-7.35,7.39,7.32,7.32,0,0,1-5.45-1.89,7.49,7.49,0,0,1-1.86-5.5v-9.38Z"/><path class="cls-2" d="M484.6,146.05h-3v-2.26h3V137.3h2.82v6.49h2.95v2.26h-2.95v13.82H484.6Z"/><path class="cls-2" d="M496.08,143.79v7.91c0,2.3.35,3.92,1,4.84a5.07,5.07,0,0,0,6.93,0c.67-.91,1-2.53,1-4.86v-7.91h2.81v9.38a6.57,6.57,0,0,1-7.35,7.39,7.34,7.34,0,0,1-5.45-1.89,7.49,7.49,0,0,1-1.86-5.5v-9.38Z"/><path class="cls-2" d="M513.22,159.87V143.79h2.45v3.34a8.42,8.42,0,0,1,2.35-3,5.06,5.06,0,0,1,3-.9,5.8,5.8,0,0,1,1,.08,4.89,4.89,0,0,1,.91.24L522,146a5.76,5.76,0,0,0-.9-.24,4.61,4.61,0,0,0-.8-.08,3.69,3.69,0,0,0-3.27,1.57A8.34,8.34,0,0,0,516,152v7.84Z"/><path class="cls-2" d="M540.8,143.79v16.08h-2.67V157a7,7,0,0,1-2.47,2.68,6.26,6.26,0,0,1-3.37.93,7.11,7.11,0,0,1-5.58-2.39,9.13,9.13,0,0,1-2.12-6.3,9.26,9.26,0,0,1,2.06-6.32,7,7,0,0,1,5.5-2.34,6.64,6.64,0,0,1,3.51.9,6.49,6.49,0,0,1,2.4,2.7v-3ZM538.13,152a6.35,6.35,0,0,0-1.49-4.39,5.49,5.49,0,0,0-7.74-.13,6.15,6.15,0,0,0-1.39,4.27,6.57,6.57,0,0,0,1.4,4.5,5.68,5.68,0,0,0,7.82,0A6.14,6.14,0,0,0,538.13,152Z"/></svg>