<svg id="Layer_1" data-name="Layer 1" xmlns="http://www.w3.org/2000/svg" viewBox="0 0 700 300"><defs><style>.cls-1{fill:#83a0a0;}.cls-2{fill:#eaefd3;}</style></defs><title>missiongothic</title><rect class="cls-1" width="700" height="300"/><path class="cls-2" d="M80.54,159.21a8.93,8.93,0,0,1-.5-2.33H80a5,5,0,0,1-4.61,2.69c-4.07,0-6.3-4-6.3-10.18s2.41-10.15,6.66-10.15a4.78,4.78,0,0,1,4,2.16h.07s0-1.23,0-2.27v-6.19h3.31v23.25a10,10,0,0,0,.47,3ZM79.75,148c0-2.66-.54-5.79-3.53-5.79s-3.81,3.23-3.81,7.16.86,7.13,3.81,7.13c2.34,0,3.53-2,3.53-4.61Z"/><path class="cls-2" d="M87.42,149.39c0-6.27,2.41-10.15,7.34-10.15s7.35,3.88,7.35,10.15-2.41,10.18-7.35,10.18S87.42,155.69,87.42,149.39Zm11.3,0c0-4-1-7.16-4-7.16s-4,3.16-4,7.16,1.08,7.16,4,7.16S98.72,153.49,98.72,149.39Z"/><path class="cls-2" d="M117.41,159.21a11.08,11.08,0,0,1-.54-2.69h-.07a5.44,5.44,0,0,1-5,3c-4.43,0-5.83-3.59-5.83-7.73V139.6h3.31v10.94c0,3.31.4,6.08,3.46,6.08,2.77,0,3.88-2.55,3.88-4.89V139.6h3.32v16.63a9.13,9.13,0,0,0,.46,3Z"/><path class="cls-2" d="M124.9,159.21a13.84,13.84,0,0,0,.39-3.05V132.94h3.31v6.15c0,1,0,2.56,0,2.56h.07a5.06,5.06,0,0,1,4.35-2.41c4.18,0,6.34,3.92,6.34,10.11s-2.41,10.22-6.51,10.22a5.23,5.23,0,0,1-4.47-2.59h-.07a9.48,9.48,0,0,1-.47,2.23Zm3.7-8.63c0,2.95.54,5.9,3.53,5.9s3.82-3.2,3.82-7.13-.83-7.12-3.82-7.12c-2.34,0-3.53,2-3.53,4.39Z"/><path class="cls-2" d="M143.47,159.21V132.94h3.31v26.27Z"/><path class="cls-2" d="M165.11,155.15c-1.44,2.88-3.42,4.42-6.88,4.42-4.71,0-7.31-3.77-7.31-10.07s2.7-10.26,7.31-10.26c5.58,0,7,4.71,7,10.36v.9h-11c.14,3.64,1.4,6.12,4.31,6.12,2,0,3.24-1.11,4.07-3.31ZM162,148c-.11-3.56-1.12-6-3.67-6s-3.89,2.48-4.1,6Z"/><path class="cls-2" d="M178.82,166.41V142.62a9.63,9.63,0,0,0-.46-3h3a11.47,11.47,0,0,1,.47,2.27h.07a5.26,5.26,0,0,1,4.47-2.63c4.14,0,6.48,4.06,6.48,10.29s-2.16,10-6.27,10a4.94,4.94,0,0,1-4.39-2.34h-.07s0,1.12,0,2.27v6.91Zm3.31-15.29c0,2.66.62,5.5,3.53,5.5s3.82-3.06,3.82-7.12c0-3.89-.87-7.13-3.82-7.13-2.77,0-3.53,2.66-3.53,5.43Z"/><path class="cls-2" d="M196.1,149.39c0-6.27,2.41-10.15,7.35-10.15s7.34,3.88,7.34,10.15-2.41,10.18-7.34,10.18S196.1,155.69,196.1,149.39Zm11.31,0c0-4-1-7.16-4-7.16s-4,3.16-4,7.16,1.08,7.16,4,7.16S207.41,153.49,207.41,149.39Z"/><path class="cls-2" d="M215.11,159.21V142.62a9.29,9.29,0,0,0-.47-3h3a13.5,13.5,0,0,1,.61,3.24h.07a5.63,5.63,0,0,1,5.51-3.57c.22,0,.47,0,.69,0l-.54,3.81a3.78,3.78,0,0,0-1.3-.21c-2.63,0-4.25,2-4.25,4.93v11.37Z"/><path class="cls-2" d="M238.26,159.21l-5.33-9.46h-.07s-.51.72-1.05,1.37l-.93,1.15v6.94h-3.31V132.94h3.31v12.34c0,.94,0,2.34,0,2.34h.07l2.13-2.7,4.32-5.32h4l-6.2,7.59,6.92,12Z"/><path class="cls-2" d="M267.49,155a6.36,6.36,0,0,1-6.37,4.53c-4.68,0-7.27-3.77-7.27-10.11s2.66-10.22,7.27-10.22c3.27,0,5.22,1.73,6.37,4.46l-2.74,2c-.47-2.05-1.62-3.31-3.49-3.31-3,0-4,3-4,7.09s.94,7,4,7c1.91,0,3-1.4,3.6-3.38Z"/><path class="cls-2" d="M281.13,159.21a9.78,9.78,0,0,1-.61-2.69,5.4,5.4,0,0,1-4.93,3c-3.53,0-5.44-2.41-5.44-5.68,0-3.78,3.21-6.3,10.33-6.3V146.4c0-2.74-1.15-4.25-3.31-4.25a4.55,4.55,0,0,0-4,2.88l-2.12-2.23a8,8,0,0,1,6.62-3.56c3.35,0,6.09,2.3,6.09,7.48v9.44a6.83,6.83,0,0,0,.57,3.05Zm-.65-9.14h-.79c-3.89,0-6.37,1.3-6.37,3.82a2.75,2.75,0,0,0,2.84,3c2.78,0,4.32-2.56,4.32-5.36Z"/><path class="cls-2" d="M289.05,159.21V142.62a9.63,9.63,0,0,0-.46-3h3a12.94,12.94,0,0,1,.61,3.24h.08a5.61,5.61,0,0,1,5.5-3.57c.22,0,.47,0,.69,0l-.54,3.81a3.78,3.78,0,0,0-1.3-.21c-2.63,0-4.25,2-4.25,4.93v11.37Z"/><path class="cls-2" d="M312.34,159.21v-10.9c0-3.28-.39-6.08-3.45-6.08S305,145.1,305,148.31v10.9h-3.31V142.62a9.29,9.29,0,0,0-.47-3h3a12.34,12.34,0,0,1,.54,2.73h.07a5.38,5.38,0,0,1,5-3.09c4.46,0,5.87,3.63,5.87,7.77v12.2Z"/><path class="cls-2" d="M320.37,135.06a2.06,2.06,0,1,1,2.05,2.05A2,2,0,0,1,320.37,135.06Zm.4,24.15V139.6h3.31v19.61Z"/><path class="cls-2" d="M338.41,158.93a7.8,7.8,0,0,1-3.21.64c-3.38,0-5.11-2-5.11-5.65V142.48h-2.34V139.6h2.34v-5.15h3.31v5.15h4.18v2.88H333.4v11.23c0,1.76.69,2.77,2.31,2.77a3.31,3.31,0,0,0,1.87-.47Z"/><path class="cls-2" d="M351.94,159.21a9.78,9.78,0,0,1-.61-2.69,5.4,5.4,0,0,1-4.93,3c-3.53,0-5.44-2.41-5.44-5.68,0-3.78,3.21-6.3,10.34-6.3V146.4c0-2.74-1.16-4.25-3.32-4.25a4.55,4.55,0,0,0-4,2.88l-2.12-2.23a8,8,0,0,1,6.62-3.56c3.35,0,6.09,2.3,6.09,7.48v9.44a6.83,6.83,0,0,0,.57,3.05Zm-.64-9.14h-.8c-3.88,0-6.37,1.3-6.37,3.82a2.75,2.75,0,0,0,2.85,3c2.77,0,4.32-2.56,4.32-5.36Z"/><path class="cls-2" d="M361.12,153.82a5.92,5.92,0,0,0,5,2.77c2.05,0,3.27-1.15,3.27-2.7,0-4.29-10.08-2.88-10.08-9,0-2.91,2.24-5.58,6.63-5.58a7.73,7.73,0,0,1,6.3,2.85L370,144.2a4.83,4.83,0,0,0-4.25-2.12c-1.69,0-3.13.94-3.13,2.52,0,3.74,10.11,2.2,10.11,9.11,0,3.42-2.44,5.86-6.51,5.86a8.91,8.91,0,0,1-7.52-3.56Z"/><path class="cls-2" d="M402.77,159.29a4.62,4.62,0,0,1-3.67-2.85H399a7.48,7.48,0,0,1-6.3,3.28c-5,0-7.77-4-7.77-8.06a7.26,7.26,0,0,1,5.14-7.24v-.07a5.7,5.7,0,0,1,3.14-10.69,6.74,6.74,0,0,1,5,2.12L396,138.45a3,3,0,0,0-2.74-1.59,2.7,2.7,0,0,0-2.81,2.85c0,1.62,1.08,3.38,4,3.45l4.32,7.85h.08a26,26,0,0,0,.57-5.69c0-.68,0-1.37,0-2h3.16a27.82,27.82,0,0,1-1.76,10.77,3.72,3.72,0,0,0,2.41,2.05Zm-9.93-13.36c-2.95.29-4.46,3-4.46,5.55s1.62,5,4.6,5a4.85,4.85,0,0,0,4.39-2.7Z"/><path class="cls-2" d="M435.82,159.21V146.44c0-3-1-4.14-2.7-4.14-2.09,0-3.53,1.69-3.53,4.75v12.16h-3.34V146.44c0-3-1-4.14-2.7-4.14-2,0-3.53,1.62-3.53,4.6v12.31h-3.31V142.62a9.29,9.29,0,0,0-.47-3h3a12.46,12.46,0,0,1,.5,2.59h.07a4.72,4.72,0,0,1,4.5-2.84,4.56,4.56,0,0,1,4.75,3.23h.08a5,5,0,0,1,4.89-3.34c4.18,0,5.15,3.09,5.15,7.12v12.85Z"/><path class="cls-2" d="M443.64,135.06a2.05,2.05,0,1,1,2.05,2.05A2,2,0,0,1,443.64,135.06Zm.39,24.15V139.6h3.31v19.61Z"/><path class="cls-2" d="M454,153.82a5.89,5.89,0,0,0,5,2.77c2,0,3.28-1.15,3.28-2.7,0-4.29-10.08-2.88-10.08-9,0-2.91,2.23-5.58,6.62-5.58a7.73,7.73,0,0,1,6.3,2.85l-2.27,2.08a4.82,4.82,0,0,0-4.25-2.12c-1.69,0-3.13.94-3.13,2.52,0,3.74,10.12,2.2,10.12,9.11,0,3.42-2.45,5.86-6.52,5.86a8.91,8.91,0,0,1-7.52-3.56Z"/><path class="cls-2" d="M471,153.82a5.92,5.92,0,0,0,5,2.77c2.06,0,3.28-1.15,3.28-2.7,0-4.29-10.08-2.88-10.08-9,0-2.91,2.23-5.58,6.62-5.58a7.7,7.7,0,0,1,6.3,2.85l-2.26,2.08a4.83,4.83,0,0,0-4.25-2.12c-1.69,0-3.13.94-3.13,2.52,0,3.74,10.11,2.2,10.11,9.11,0,3.42-2.45,5.86-6.51,5.86a8.93,8.93,0,0,1-7.53-3.56Z"/><path class="cls-2" d="M486.37,135.06a2.05,2.05,0,1,1,2.05,2.05A2,2,0,0,1,486.37,135.06Zm.39,24.15V139.6h3.31v19.61Z"/><path class="cls-2" d="M494.36,149.39c0-6.27,2.41-10.15,7.34-10.15s7.35,3.88,7.35,10.15-2.42,10.18-7.35,10.18S494.36,155.69,494.36,149.39Zm11.3,0c0-4-1-7.16-4-7.16s-4,3.16-4,7.16,1.08,7.16,4,7.16S505.66,153.49,505.66,149.39Z"/><path class="cls-2" d="M524,159.21v-10.9c0-3.28-.4-6.08-3.45-6.08s-3.89,2.87-3.89,6.08v10.9h-3.31V142.62a9.58,9.58,0,0,0-.47-3h3a12.34,12.34,0,0,1,.54,2.73h.07a5.37,5.37,0,0,1,5-3.09c4.46,0,5.86,3.63,5.86,7.77v12.2Z"/><path class="cls-2" d="M551.52,158.46c0-1.44.08-2.3.08-2.3h-.08a4.8,4.8,0,0,1-4.35,2.51c-4.1,0-6.34-3.74-6.34-9.86s2.45-9.57,6.7-9.57a5,5,0,0,1,4.28,2.48h.07a9.71,9.71,0,0,1,.44-2.12h3.13a8.79,8.79,0,0,0-.58,3v16.45c0,5-2.34,8-6.8,8a6.59,6.59,0,0,1-6.41-4l2.63-2.13c.68,1.8,1.8,3,3.71,3,2.44,0,3.52-1.73,3.52-4.57Zm0-10.87c0-2.56-.68-5.36-3.49-5.36-3,0-3.85,2.73-3.85,6.58s.87,6.77,3.71,6.77c2.48,0,3.63-2.23,3.63-4.82Z"/><path class="cls-2" d="M559.3,149.39c0-6.27,2.41-10.15,7.34-10.15s7.35,3.88,7.35,10.15-2.41,10.18-7.35,10.18S559.3,155.69,559.3,149.39Zm11.3,0c0-4-1-7.16-4-7.16s-4,3.16-4,7.16,1.08,7.16,4,7.16S570.6,153.49,570.6,149.39Z"/><path class="cls-2" d="M587.27,158.93a7.78,7.78,0,0,1-3.2.64c-3.39,0-5.11-2-5.11-5.65V142.48h-2.34V139.6H579v-5.15h3.31v5.15h4.17v2.88h-4.17v11.23c0,1.76.68,2.77,2.3,2.77a3.31,3.31,0,0,0,1.87-.47Z"/><path class="cls-2" d="M601.53,159.21V147.05c0-2.67-1-4.82-3.46-4.82s-3.89,1.94-3.89,4.67v12.31h-3.31V132.94h3.31v6.8c0,.94,0,2.27,0,2.27h.07a5.3,5.3,0,0,1,4.75-2.77c4.43,0,5.87,3.63,5.87,7.77v12.2Z"/><path class="cls-2" d="M609.3,135.06a2.06,2.06,0,1,1,2.06,2.05A2,2,0,0,1,609.3,135.06Zm.4,24.15V139.6H613v19.61Z"/><path class="cls-2" d="M630.94,155a6.36,6.36,0,0,1-6.37,4.53c-4.68,0-7.27-3.77-7.27-10.11s2.66-10.22,7.27-10.22c3.27,0,5.22,1.73,6.37,4.46l-2.74,2c-.46-2.05-1.62-3.31-3.49-3.31-3,0-4,3-4,7.09s.94,7,4,7c1.91,0,3-1.4,3.6-3.38Z"/></svg>