<svg id="Layer_1" data-name="Layer 1" xmlns="http://www.w3.org/2000/svg" viewBox="0 0 700 300"><defs><style>.cls-1{fill:#eaefd3;}.cls-2{fill:#333745;}</style></defs><title>mrseaves</title><rect class="cls-1" width="700" height="300"/><path class="cls-2" d="M142.27,150.92a6.79,6.79,0,0,1,6.37-6.91c3,0,4.28,1.26,4.28,2.59a1.51,1.51,0,0,1-1.58,1.55,1.42,1.42,0,0,1-1.41-1.44c0-1.19-.64-1.55-1.29-1.55-1.91,0-3.46,2.45-3.46,5.76,0,2.88,1.41,4.79,4.36,4.79a5.88,5.88,0,0,0,3.85-1.66l.61.79a7.34,7.34,0,0,1-5.36,2.38A6,6,0,0,1,142.27,150.92Z"/><path class="cls-2" d="M156.05,155.85c2.38,0,2.85-.61,2.85-4.21v-1.8c0-3.6-.47-4.18-2.85-4.18v-.75l4.79-.9a13.8,13.8,0,0,1,.61,2.59,4.68,4.68,0,0,1,3.78-2.59c2,0,2.85,1.33,2.85,2.23s-.33,1.69-1.44,1.69a1.3,1.3,0,0,1-1.26-1.3,1.07,1.07,0,0,0-1.16-1.18c-.82,0-2.77,1.33-2.77,4.21v2c0,3.6.43,4.21,2.85,4.21v.75h-8.25Z"/><path class="cls-2" d="M170.56,150.59c0-3.63,3.28-6.58,7.27-6.58s7.27,3,7.27,6.58-3.27,6.63-7.27,6.63S170.56,154.23,170.56,150.59Zm11.63,0c0-2.88-1.37-5.22-4.36-5.22s-4.35,2.34-4.35,5.22,1.4,5.22,4.35,5.22S182.19,153.47,182.19,150.59Z"/><path class="cls-2" d="M196.37,164.85c2.41,0,2.85-.58,2.85-4.18v-5.61a5.58,5.58,0,0,1-4.4,2.16,6.61,6.61,0,0,1,0-13.21,5.58,5.58,0,0,1,4.61,2.41L201,144h.75v16.66c0,3.6.47,4.18,2.85,4.18v.75h-8.25Zm2.85-11.95v-4.61a4,4,0,0,0-3.64-2.84c-2.81,0-4.1,2.26-4.1,5.14s1.29,5.19,4.1,5.19A4,4,0,0,0,199.22,152.9Z"/><path class="cls-2" d="M208.25,151.82v-2.27c0-3.6-.43-4.21-2.84-4.21v-.72h5.4v7c0,2.34.79,3.85,2.73,3.85,1.41,0,3.89-1.33,3.89-3.56v-2.38c0-3.6-.47-4.21-2.88-4.21v-.72H220v7c0,3.42.58,3.85,2.49,3.85v.69l-4.43.9a10.13,10.13,0,0,1-.58-2.2,6.93,6.93,0,0,1-4.71,2.31C209.4,157.22,208.25,154.88,208.25,151.82Z"/><path class="cls-2" d="M225.24,150.59A6.72,6.72,0,0,1,231.9,144c3.21,0,5.76,2.59,4.9,5.68h-8.68c-.43,3.39,1,6,4.68,6a6.62,6.62,0,0,0,4-1.66l.65.79a8.09,8.09,0,0,1-5.51,2.38A6.48,6.48,0,0,1,225.24,150.59Zm9.08-2.23c.39-1.15-.22-2.91-2.6-2.91a3.66,3.66,0,0,0-3.38,2.91Z"/><path class="cls-2" d="M241.7,148.43h9.07V150H241.7Z"/><path class="cls-2" d="M255.12,155.85c2.38,0,2.85-.61,2.85-4.21v-1.8c0-3.6-.47-4.18-2.85-4.18v-.75l4.79-.9a13.8,13.8,0,0,1,.61,2.59A6.22,6.22,0,0,1,265.2,144a3.58,3.58,0,0,1,3.85,2.7,6.85,6.85,0,0,1,5-2.7c3.21,0,4.14,2.3,4.14,5.36v2.27c0,3.6.47,4.21,2.85,4.21v.75h-7.63v-.75c2,0,2.23-.4,2.23-4.21v-2.09c0-2.34-.69-3.85-2.56-3.85-1.22,0-3.74,1.37-3.74,3.6v2.34c0,3.81.25,4.21,2.27,4.21v.75h-7.1v-.75c2,0,2.27-.4,2.27-4.21v-2.09c0-2.34-.72-3.85-2.59-3.85-1.26,0-3.71,1.37-3.71,3.6v2.34c0,3.74.26,4.21,2.24,4.21v.75h-7.64Z"/><path class="cls-2" d="M283.53,154.05c0-3.06,3.56-4.39,7.67-5.11,0-2.7-.37-3.78-2.42-3.78-.82,0-2,.57-2,1.73a1.24,1.24,0,1,1-2.48,0c0-1.73,2.27-2.88,4.57-2.88,3.49,0,4.93,1.47,4.93,4.89v5.44c0,.9.29,1.4.83,1.4a1.68,1.68,0,0,0,1-.54l.5.69a3.43,3.43,0,0,1-2.38,1.11,2.27,2.27,0,0,1-2.44-2.09c-1.77,1.59-3.06,2.16-4.5,2.16A3,3,0,0,1,283.53,154.05Zm7.67-.32v-3.68c-3.42.8-5,2-5,3.57a1.7,1.7,0,0,0,1.69,1.83C288.67,155.45,289.54,155.2,291.2,153.73Z"/><path class="cls-2" d="M298.4,150.59a6.45,6.45,0,0,1,6.26-6.58,5.53,5.53,0,0,1,4.39,2.12v-5.87c0-3.6-.43-4.21-2.84-4.21v-.75l5.4-.9v17.27c0,3.42.57,3.85,2.48,3.85v.69l-4.43.9a11.56,11.56,0,0,1-.57-2.09,5.51,5.51,0,0,1-4.43,2.2A6.49,6.49,0,0,1,298.4,150.59Zm10.65,2.34v-4.64a4,4,0,0,0-3.64-2.84c-2.8,0-4.1,2.26-4.1,5.14s1.3,5.19,4.1,5.19A4,4,0,0,0,309.05,152.93Z"/><path class="cls-2" d="M316.86,154.05c0-3.06,3.57-4.39,7.67-5.11,0-2.7-.36-3.78-2.41-3.78-.83,0-2.05.57-2.05,1.73a1.25,1.25,0,1,1-2.49,0c0-1.73,2.27-2.88,4.57-2.88,3.5,0,4.94,1.47,4.94,4.89v5.44c0,.9.28,1.4.82,1.4a1.66,1.66,0,0,0,1-.54l.5.69a3.43,3.43,0,0,1-2.37,1.11,2.27,2.27,0,0,1-2.45-2.09c-1.76,1.59-3.06,2.16-4.5,2.16A3,3,0,0,1,316.86,154.05Zm7.67-.32v-3.68c-3.42.8-5,2-5,3.57a1.7,1.7,0,0,0,1.69,1.83C322,155.45,322.87,155.2,324.53,153.73Z"/><path class="cls-2" d="M331.37,155.85c2.38,0,2.84-.61,2.84-4.21v-1.8c0-3.6-.46-4.18-2.84-4.18v-.75l4.79-.9a14.63,14.63,0,0,1,.61,2.59,6.18,6.18,0,0,1,4.68-2.59,3.59,3.59,0,0,1,3.85,2.7,6.85,6.85,0,0,1,5-2.7c3.2,0,4.14,2.3,4.14,5.36v2.27c0,3.6.47,4.21,2.84,4.21v.75h-7.63v-.75c2,0,2.23-.4,2.23-4.21v-2.09c0-2.34-.68-3.85-2.55-3.85-1.23,0-3.75,1.37-3.75,3.6v2.34c0,3.81.26,4.21,2.27,4.21v.75H340.8v-.75c2,0,2.27-.4,2.27-4.21v-2.09c0-2.34-.72-3.85-2.59-3.85-1.26,0-3.71,1.37-3.71,3.6v2.34c0,3.74.25,4.21,2.23,4.21v.75h-7.63Z"/><path class="cls-2" d="M359.77,150.59a6.72,6.72,0,0,1,6.66-6.58c3.21,0,5.76,2.59,4.9,5.68h-8.68c-.43,3.39,1,6,4.68,6a6.62,6.62,0,0,0,4-1.66l.65.79a8.11,8.11,0,0,1-5.51,2.38A6.48,6.48,0,0,1,359.77,150.59Zm9.07-2.23c.4-1.15-.21-2.91-2.59-2.91a3.66,3.66,0,0,0-3.38,2.91Z"/><path class="cls-2" d="M383.89,150.92c0-2.88,1.88-4.54,4.11-5.94a10.51,10.51,0,0,1-2-5.4c0-3,2.73-5.18,6-5.18,2.77,0,5.15,1.69,5.15,4.14,0,3.2-3.53,4.31-6.48,6.33a66.9,66.9,0,0,0,5.86,7.06,8.3,8.3,0,0,0,.51-2.16c.32-2.63-.18-3.24-3.17-3.24v-.76H402v.76c-3,0-3.39.72-3.75,3.24a9.92,9.92,0,0,1-.83,3.13c1.41,1.62,3,2.88,4.36,2.88a3.51,3.51,0,0,0,2.34-1.26l.61.61a4.8,4.8,0,0,1-3.64,2.09c-1.94,0-3.38-1.05-4.78-2.41a6.58,6.58,0,0,1-5.37,2.41C387.56,157.22,383.89,155.24,383.89,150.92Zm11.59,3a74.84,74.84,0,0,1-6.58-7.64,6,6,0,0,0-2.42,4.94,4.72,4.72,0,0,0,4.79,4.6A5.27,5.27,0,0,0,395.48,153.91Zm-.61-15.37A2.71,2.71,0,0,0,392,135.8a3.27,3.27,0,0,0-3.42,3.2,9.5,9.5,0,0,0,1.4,4.75C392.53,142.31,394.87,141,394.87,138.54Z"/><path class="cls-2" d="M415,155.85c2.38,0,2.85-.61,2.85-4.21v-1.8c0-3.6-.47-4.18-2.85-4.18v-.75l4.79-.9a14.63,14.63,0,0,1,.61,2.59,6.18,6.18,0,0,1,4.68-2.59,3.58,3.58,0,0,1,3.85,2.7,6.85,6.85,0,0,1,5-2.7c3.21,0,4.14,2.3,4.14,5.36v2.27c0,3.6.47,4.21,2.85,4.21v.75h-7.64v-.75c2,0,2.24-.4,2.24-4.21v-2.09c0-2.34-.69-3.85-2.56-3.85-1.22,0-3.74,1.37-3.74,3.6v2.34c0,3.81.25,4.21,2.26,4.21v.75h-7.09v-.75c2,0,2.27-.4,2.27-4.21v-2.09c0-2.34-.72-3.85-2.59-3.85-1.26,0-3.71,1.37-3.71,3.6v2.34c0,3.74.25,4.21,2.23,4.21v.75H415Z"/><path class="cls-2" d="M443.08,155.85c2.37,0,2.84-.61,2.84-4.21v-1.8c0-3.6-.47-4.18-2.84-4.18v-.75l4.78-.9a14.54,14.54,0,0,1,.62,2.59,4.68,4.68,0,0,1,3.78-2.59c2,0,2.84,1.33,2.84,2.23s-.32,1.69-1.44,1.69a1.31,1.31,0,0,1-1.26-1.3,1.07,1.07,0,0,0-1.15-1.18c-.83,0-2.77,1.33-2.77,4.21v2c0,3.6.43,4.21,2.84,4.21v.75h-8.24Z"/><path class="cls-2" d="M457.58,152h.76a4.1,4.1,0,0,0,3.92,4,1.92,1.92,0,0,0,2.06-1.83c0-.9-.8-1.55-2-2.2l-2-1.08a4.21,4.21,0,0,1-2.37-3.6,3.48,3.48,0,0,1,3.63-3.27c1.88,0,2.59.82,3.06.82.15,0,.22-.25.22-.82h.76v4.17h-.76a2.92,2.92,0,0,0-2.92-3c-1.22,0-1.83.65-1.83,1.55s.57,1.33,2.19,2.19l1.73.94a4.21,4.21,0,0,1,2.48,3.45,4,4,0,0,1-4.28,3.93c-1.62,0-2.88-1.16-3.38-1.16-.33,0-.47.29-.47,1.16h-.76Z"/><path class="cls-2" d="M471.77,155a1.95,1.95,0,1,1,1.94,1.94A1.93,1.93,0,0,1,471.77,155Z"/><path class="cls-2" d="M489.48,150.59a6.72,6.72,0,0,1,6.66-6.58c3.2,0,5.76,2.59,4.89,5.68h-8.67c-.43,3.39,1,6,4.68,6a6.64,6.64,0,0,0,4-1.66l.65.79a8.11,8.11,0,0,1-5.51,2.38A6.48,6.48,0,0,1,489.48,150.59Zm9.07-2.23c.4-1.15-.22-2.91-2.59-2.91a3.67,3.67,0,0,0-3.39,2.91Z"/><path class="cls-2" d="M504.67,154.05c0-3.06,3.56-4.39,7.67-5.11,0-2.7-.36-3.78-2.41-3.78-.83,0-2.05.57-2.05,1.73a1.25,1.25,0,1,1-2.49,0c0-1.73,2.27-2.88,4.57-2.88,3.49,0,4.93,1.47,4.93,4.89v5.44c0,.9.29,1.4.83,1.4a1.66,1.66,0,0,0,1-.54l.5.69a3.43,3.43,0,0,1-2.37,1.11,2.27,2.27,0,0,1-2.45-2.09c-1.76,1.59-3.06,2.16-4.5,2.16A3,3,0,0,1,504.67,154.05Zm7.67-.32v-3.68c-3.42.8-5,2-5,3.57a1.7,1.7,0,0,0,1.69,1.83C509.82,155.45,510.68,155.2,512.34,153.73Z"/><path class="cls-2" d="M520.12,147.46c-.69-1.55-1.26-2.12-2.45-2.12v-.72H524v.72c-1.62,0-1.87.39-1.12,2.12l2.59,5.94,2.67-5.94c.68-1.55.54-2.12-1-2.12v-.72h5v.72c-1.26,0-1.83.54-2.55,2.12l-4.39,9.79h-.72Z"/><path class="cls-2" d="M533.65,150.59a6.72,6.72,0,0,1,6.66-6.58c3.2,0,5.76,2.59,4.9,5.68h-8.68c-.43,3.39,1,6,4.68,6a6.64,6.64,0,0,0,4-1.66l.65.79a8.11,8.11,0,0,1-5.51,2.38A6.48,6.48,0,0,1,533.65,150.59Zm9.07-2.23c.4-1.15-.21-2.91-2.59-2.91a3.65,3.65,0,0,0-3.38,2.91Z"/><path class="cls-2" d="M548.84,152h.76a4.1,4.1,0,0,0,3.92,4,1.91,1.91,0,0,0,2.05-1.83c0-.9-.79-1.55-2-2.2l-2-1.08a4.19,4.19,0,0,1-2.37-3.6A3.48,3.48,0,0,1,552.8,144c1.87,0,2.59.82,3.06.82.15,0,.22-.25.22-.82h.75v4.17h-.75a2.92,2.92,0,0,0-2.92-3c-1.22,0-1.83.65-1.83,1.55s.57,1.33,2.19,2.19l1.73.94a4.23,4.23,0,0,1,2.48,3.45,4,4,0,0,1-4.28,3.93c-1.62,0-2.88-1.16-3.38-1.16-.33,0-.47.29-.47,1.16h-.76Z"/></svg>