<svg id="Layer_1" data-name="Layer 1" xmlns="http://www.w3.org/2000/svg" viewBox="0 0 700 300"><defs><style>.cls-1{fill:#83a0a0;}.cls-2{fill:#eaefd3;}</style></defs><title>valentina</title><rect class="cls-1" width="700" height="300"/><path class="cls-2" d="M96.53,160.05c-5.83,0-8.49-4.64-8.35-9.39s3.06-9.36,8.35-9.87c3.35-.32,7.38,1.84,6.7,5a1.82,1.82,0,0,1-1.73,1.41,1.72,1.72,0,0,1-1.91-1.7,2.54,2.54,0,0,1,.79-1.76c.9-1.15-1.33-2.91-4.14-2.16-3.45.94-4.93,4.93-4.71,8.82.25,4.25,2.52,8.35,6.4,8.21,3.68-.11,4.76-3.49,5-4.18l.57.54C103.23,155.88,102.4,160.05,96.53,160.05Z"/><path class="cls-2" d="M115.83,140.9c2.08,0,3.67,1.84,3.09,3.49a2.25,2.25,0,0,1-2.52,1.55,1.64,1.64,0,0,1-1.37-1.73c0-1.76,1.37-1.58,1.37-2.16,0-.25-1.37-.57-2.63.33-1.11.79-2.19,2.52-2.19,6v9.25c0,.62,0,.83.29.87l2.19.29v.54h-8.31v-.54l2.19-.29c.29,0,.29-.25.29-.87V146.3c0-.83,0-3.56-.54-3.56l-2.2.07V142a14.6,14.6,0,0,0,5.33-1.08c.69-.14.76.29.76,2.59C112.91,141.55,114.46,140.87,115.83,140.9Z"/><path class="cls-2" d="M137.68,150.44c0,5.29-4,9.65-8.79,9.65s-8.78-4.36-8.78-9.65,4-9.68,8.78-9.68S137.68,145.08,137.68,150.44Zm-3.85-.11c0-5-2.2-9-4.94-9s-4.93,3.92-4.93,9,2.2,9,4.93,9S133.83,155.37,133.83,150.33Z"/><path class="cls-2" d="M155.71,146.19V167.9c0,.61,0,.83.29.86l2.2.29v.54h-8.32v-.54l2.2-.29c.29,0,.29-.25.29-.86V157.78a7.72,7.72,0,0,1-4.29,2c-4.25.44-8.75-2.84-8.21-8.78.54-7.38,6-9.32,9.36-10.19l3.14,1.12c0-.9.17-1.15.57-1.15.68,0,2,1.11,3.74,1.11v.83l-.43,0C155.71,142.63,155.71,145.36,155.71,146.19Zm-6.48-4.53c-2.52.83-5.4,4-5.4,9.61,0,5.94,2.31,7.31,4.54,7.31,1.44,0,4-1.12,4-3.64v-12.2Z"/><path class="cls-2" d="M178.64,157.71v.72a10,10,0,0,0-5.79,1.51c-.36,0-.43-.32-.43-1.62l-5.62,1.62c-2.48-.18-5.11-.64-5.11-6.58v-6.59c0-.9,0-4.14-.58-4.14a19.33,19.33,0,0,0-2.19.11V142c3.17,0,4.78-1.23,5.54-1.26.43,0,.58.36.58,1.47v10.15c0,4.65.9,6.3,3.38,6.3,3.64,0,4.1-3.27,4.1-4.39v-7.45c0-.9,0-4.14-.57-4.14a19.12,19.12,0,0,0-2.16.11V142a14.64,14.64,0,0,0,5.29-1.23c.58-.14.79.15.79,1.44v12.2c0,1.34.11,3.42.65,3.42Z"/><path class="cls-2" d="M195.78,155c-.07.5-1.08,5-6.91,5s-8.46-4.75-8.42-9.54,2.91-9.61,8.42-9.61a6.85,6.85,0,0,1,6.91,6.37c0,.15-.11.18-.32.26l-11.31,3.38a15.77,15.77,0,0,0,.29,2.48c.79,3.64,2.74,5.3,5.83,5.3,3.31,0,4.68-3.46,5-4.18Zm-11.7-5,8.39-2.48s0-5.83-3.89-5.83C183.61,141.66,184.08,150,184.08,150Z"/><path class="cls-2" d="M209.64,157.49a7.62,7.62,0,0,1-5.47,2.6c-3.38,0-3.74-2-3.74-5.15V142h-2.49v-.61a6.89,6.89,0,0,0,3.49-.79c1.41-.87,1.8-3.82,1.8-3.82h.65v4.61h3.85V142h-3.85v12.78c0,1.33.36,4,2.2,4a4.2,4.2,0,0,0,3.06-1.61Z"/><path class="cls-2" d="M226.06,158.25v.54a8.08,8.08,0,0,0-4.65,1.12,1.52,1.52,0,0,1-1.44-1.66v-1.4a5.13,5.13,0,0,1-4.6,3.06c-4.25,0-5.44-4.47-3.1-7.13l.58-.58L220,150v-3.85c0-1.66-.18-3-.79-3.6-1.12-1.11-3.13-.79-4.35,0a3.65,3.65,0,0,0-2,2.81s.28-.65,1.44-.65a1.63,1.63,0,0,1,1.58,1.73,1.66,1.66,0,0,1-1.76,1.69,2.26,2.26,0,0,1-2.06-1.55,4.2,4.2,0,0,1,1.69-4.32,6.29,6.29,0,0,1,3.82-1.36c5.22-.36,5.76,3.09,5.76,5v9.11c0,1.37.29,3.31.58,3.31ZM220,150.76l-5.72,1.77c-1.4,3,.58,5.11,2.2,5.4,1,.18,3.52,0,3.52-3.53Z"/><path class="cls-2" d="M238,141.37h.54a8.48,8.48,0,0,0-.07,1.29c0,1.08.32,3.46.32,3.46h-.58c0-.43-.07-4.61-4.57-4.57-2.59,0-3.6,1.37-3.38,3.42s4.1,3.38,5.15,3.89c2.7,1.29,4.46,2.59,4.75,5.5.47,4.61-2.95,5.8-5.8,5.8-2.52,0-4-1.51-4.82-1.51a.81.81,0,0,0-.83.72h-.58a4,4,0,0,0,.11-1.33c0-1.16-.39-4.11-.39-4.11h.57c0,3.74,3.6,5.26,6,5.26s3.28-1.3,3.24-3.1c0-1.55-1.48-2.34-3.24-3.13-2.77-1.26-6.34-2.56-6.34-6.84a5.14,5.14,0,0,1,5.37-5.36,8.35,8.35,0,0,1,3.31.79A1.08,1.08,0,0,0,238,141.37Z"/><path class="cls-2" d="M271,158.83c-2.44,0-5.36,1.37-5.79,1s-.22-1.11-.22-1.9a7.46,7.46,0,0,1-4.39,1.94c-4.14.47-8.42-2.77-7.92-8.53.65-7.45,5.72-9.36,9-10.15l3.27,1.33V136c0-.83,0-3.57-.54-3.57l-2.19.07v-.82a15.6,15.6,0,0,0,5.18-1.08c.65-.11.83.28.83,2v22.57c0,1.33.32,3.1.57,3.1H271Zm-14.5-7.2c0,5.76,2.23,7.41,4.39,7.41,1.51,0,4.1-1.11,4.1-4.64v-11l-2.77-1.15C259.72,143.1,256.48,146.08,256.48,151.63Z"/><path class="cls-2" d="M288.12,155c-.07.5-1.08,5-6.91,5s-8.46-4.75-8.42-9.54,2.91-9.61,8.42-9.61a6.85,6.85,0,0,1,6.91,6.37c0,.15-.11.18-.33.26l-11.3,3.38a15.77,15.77,0,0,0,.29,2.48c.79,3.64,2.74,5.3,5.83,5.3,3.31,0,4.68-3.46,5-4.18Zm-11.7-5,8.39-2.48s0-5.83-3.89-5.83C276,141.66,276.42,150,276.42,150Z"/><path class="cls-2" d="M318.5,151.34c.51,5.76-3.78,9-7.92,8.53a7.49,7.49,0,0,1-4.39-1.94c0,.79.07,1.65-.22,1.9s-2-.39-4.42-.46v-.62h.82c.55,0,.55-3.81.55-4.93V136c0-.83,0-3.6-.55-3.6l-2.19.07v-.82a13.41,13.41,0,0,0,5.26-1.26c.61-.11.75.28.75,2.08v10l3.28-1.33C312.78,142,317.85,143.89,318.5,151.34Zm-8.21,7.7c2.16,0,4.4-1.65,4.4-7.41a9.37,9.37,0,0,0-6.34-9.11l-2.16.9v11C306.19,157.93,308.78,159,310.29,159Z"/><path class="cls-2" d="M336,158.25v.54a8.07,8.07,0,0,0-4.64,1.12,1.52,1.52,0,0,1-1.44-1.66v-1.4a5.14,5.14,0,0,1-4.61,3.06c-4.24,0-5.43-4.47-3.09-7.13l.57-.58L330,150v-3.85c0-1.66-.18-3-.79-3.6-1.12-1.11-3.13-.79-4.36,0a3.67,3.67,0,0,0-2,2.81s.29-.65,1.44-.65a1.64,1.64,0,0,1,1.59,1.73,1.67,1.67,0,0,1-1.77,1.69,2.25,2.25,0,0,1-2.05-1.55,4.18,4.18,0,0,1,1.69-4.32,6.25,6.25,0,0,1,3.82-1.36c5.22-.36,5.76,3.09,5.76,5v9.11c0,1.37.29,3.31.57,3.31ZM330,150.76l-5.72,1.77c-1.41,3,.57,5.11,2.19,5.4,1,.18,3.53,0,3.53-3.53Z"/><path class="cls-2" d="M345.83,160.05c-5.84,0-8.5-4.64-8.35-9.39s3.06-9.36,8.35-9.87c3.34-.32,7.37,1.84,6.69,5a1.8,1.8,0,0,1-1.73,1.41,1.72,1.72,0,0,1-1.9-1.7,2.54,2.54,0,0,1,.79-1.76c.9-1.15-1.33-2.91-4.14-2.16-3.46.94-4.93,4.93-4.72,8.82.25,4.25,2.52,8.35,6.41,8.21,3.67-.11,4.75-3.49,5-4.18l.58.54C352.52,155.88,351.69,160.05,345.83,160.05Z"/><path class="cls-2" d="M370.12,158.25v.54a8.07,8.07,0,0,0-4.64,1.12,1.52,1.52,0,0,1-1.44-1.66v-1.4a5.14,5.14,0,0,1-4.61,3.06c-4.24,0-5.43-4.47-3.09-7.13l.57-.58L364,150v-3.85c0-1.66-.18-3-.79-3.6-1.12-1.11-3.13-.79-4.36,0a3.67,3.67,0,0,0-2,2.81s.29-.65,1.44-.65a1.64,1.64,0,0,1,1.59,1.73,1.67,1.67,0,0,1-1.77,1.69,2.25,2.25,0,0,1-2.05-1.55,4.18,4.18,0,0,1,1.69-4.32,6.29,6.29,0,0,1,3.82-1.36c5.22-.36,5.76,3.09,5.76,5v9.11c0,1.37.29,3.31.57,3.31ZM364,150.76l-5.72,1.77c-1.41,3,.57,5.11,2.19,5.4,1,.18,3.53,0,3.53-3.53Z"/><path class="cls-2" d="M380.31,159.37H372v-.54l2.19-.29c.29,0,.29-.25.29-.87V136c0-.83,0-3.53-.54-3.53l-2.19.07v-.82a15.75,15.75,0,0,0,5.25-1.12c.58-.11.83.14.83,1.26v25.84c0,.62,0,.83.29.87l2.19.29Z"/><path class="cls-2" d="M397.45,158.25v.54a8.11,8.11,0,0,0-4.65,1.12,1.51,1.51,0,0,1-1.43-1.66v-1.4a5.15,5.15,0,0,1-4.61,3.06c-4.25,0-5.44-4.47-3.1-7.13l.58-.58,7.13-2.23v-3.85c0-1.66-.18-3-.8-3.6-1.11-1.11-3.13-.79-4.35,0a3.65,3.65,0,0,0-2,2.81s.29-.65,1.44-.65a1.63,1.63,0,0,1,1.58,1.73,1.66,1.66,0,0,1-1.76,1.69,2.23,2.23,0,0,1-2.05-1.55,4.16,4.16,0,0,1,1.69-4.32,6.24,6.24,0,0,1,3.81-1.36c5.22-.36,5.76,3.09,5.76,5v9.11c0,1.37.29,3.31.58,3.31Zm-6.08-7.49-5.73,1.77c-1.4,3,.58,5.11,2.2,5.4,1,.18,3.53,0,3.53-3.53Z"/><path class="cls-2" d="M416.46,150.44c0,5.29-4,9.65-8.79,9.65s-8.78-4.36-8.78-9.65,4-9.68,8.78-9.68S416.46,145.08,416.46,150.44Zm-3.86-.11c0-5-2.19-9-4.93-9s-4.93,3.92-4.93,9,2.2,9,4.93,9S412.6,155.37,412.6,150.33Z"/><path class="cls-2" d="M457.53,159.37H451.2l-3.75-4.11c-3.09,5.3-14.33,7.27-17.74.15-3.17-6.63,3.41-11,6.48-12.24a40.44,40.44,0,0,1-3-3.56,6.29,6.29,0,0,1,.36-6.81c2.34-2.73,7.13-3,9.51-1.11,3.16,2.48,2.84,7.59-3.6,10.29l9.14,9.9.9-1.48c1.94-3.09,2.34-4.75,2-6.15-.4-1.12-1.73-1.26-2-2.48a1.16,1.16,0,0,1,1.23-1.52,2,2,0,0,1,1.87,1.34c1,2.48-.22,5.72-2.31,9l-1.08,1.84,4.5,5a3.5,3.5,0,0,0,1.88,1.23l1.9.18Zm-24.15-5.51c3.38,6.51,10.76,5.11,13.46.76l-10.3-11A7.38,7.38,0,0,0,433.38,153.86Zm5.68-12.35c1.84-1.22,4.11-3.67,3.86-6a4.23,4.23,0,0,0-4-4.11,3.72,3.72,0,0,0-4.21,4C434.89,137.34,436.51,138.89,439.06,141.51Z"/><path class="cls-2" d="M485.65,141.91l-2.2.29a1.08,1.08,0,0,0-.83.83l-5.22,16.3c-.1.25-1.33.22-1.4,0l-5.51-16.27c-.25-.79-.46-.83-.68-.86l-2.2-.29v-.54h8.32v.54l-2.2.29c-.21,0-.32.18-.18.5l4.21,12.42,4-12.31c.11-.43-.1-.58-.36-.61l-2.19-.29v-.54h6.48Z"/><path class="cls-2" d="M501.34,158.25v.54a8.07,8.07,0,0,0-4.64,1.12,1.52,1.52,0,0,1-1.44-1.66v-1.4a5.14,5.14,0,0,1-4.61,3.06c-4.24,0-5.43-4.47-3.09-7.13l.57-.58,7.13-2.23v-3.85c0-1.66-.18-3-.79-3.6-1.12-1.11-3.13-.79-4.36,0a3.67,3.67,0,0,0-2,2.81s.29-.65,1.44-.65a1.64,1.64,0,0,1,1.59,1.73,1.67,1.67,0,0,1-1.77,1.69,2.25,2.25,0,0,1-2.05-1.55,4.18,4.18,0,0,1,1.69-4.32,6.27,6.27,0,0,1,3.82-1.36c5.22-.36,5.76,3.09,5.76,5v9.11c0,1.37.29,3.31.57,3.31Zm-6.08-7.49-5.72,1.77c-1.41,3,.57,5.11,2.19,5.4,1,.18,3.53,0,3.53-3.53Z"/><path class="cls-2" d="M511.53,159.37h-8.31v-.54l2.19-.29c.29,0,.29-.25.29-.87V136c0-.83,0-3.53-.54-3.53l-2.19.07v-.82a15.75,15.75,0,0,0,5.25-1.12c.58-.11.83.14.83,1.26v25.84c0,.62,0,.83.29.87l2.19.29Z"/><path class="cls-2" d="M528.67,155c-.07.5-1.08,5-6.91,5s-8.46-4.75-8.43-9.54,2.92-9.61,8.43-9.61a6.85,6.85,0,0,1,6.91,6.37c0,.15-.11.18-.33.26L517,150.8a15.77,15.77,0,0,0,.29,2.48c.79,3.64,2.73,5.3,5.83,5.3,3.31,0,4.68-3.46,5-4.18ZM517,150l8.39-2.48s0-5.83-3.89-5.83C516.5,141.66,517,150,517,150Z"/><path class="cls-2" d="M549.83,159.37h-8.31v-.54l2.19-.29c.29,0,.29-.25.29-.87v-9.53c0-4.29-.93-5.58-3.42-5.58a3.85,3.85,0,0,0-3.85,4v11.08c0,.62,0,.83.29.87l2.2.29v.54H530.9v-.54l2.2-.29c.28,0,.28-.25.28-.87V146.3c0-.83,0-3.56-.54-3.56l-2.19.07V142c2.88,0,4.5-1.19,5.33-1.19.54,0,.75.29.75,1.7l5.51-1.66c2.88,0,5.11,1.37,5.11,6.23v10.61c0,.62,0,.83.29.87l2.19.29Z"/><path class="cls-2" d="M563.52,157.49a7.67,7.67,0,0,1-5.48,2.6c-3.38,0-3.74-2-3.74-5.15V142h-2.48v-.61a6.89,6.89,0,0,0,3.49-.79c1.4-.87,1.8-3.82,1.8-3.82h.65v4.61h3.85V142h-3.85v12.78c0,1.33.36,4,2.19,4a4.17,4.17,0,0,0,3.06-1.61Z"/><path class="cls-2" d="M573.34,159.37H565v-.54l2.19-.29c.29,0,.29-.25.29-.87V146.26c0-.82,0-3.52-.54-3.52l-2.19.07V142c3,0,4.64-1.22,5.43-1.26.47,0,.65.33.65,1.41v15.54c0,.62,0,.83.29.87l2.19.29Zm-6.4-25.13a2,2,0,1,1,2,1.95A2,2,0,0,1,566.94,134.24Z"/><path class="cls-2" d="M594.69,159.37h-8.32v-.54l2.2-.29c.29,0,.29-.25.29-.87v-9.53c0-4.29-.94-5.58-3.42-5.58a3.84,3.84,0,0,0-3.85,4v11.08c0,.62,0,.83.28.87l2.2.29v.54h-8.31v-.54l2.19-.29c.29,0,.29-.25.29-.87V146.3c0-.83,0-3.56-.54-3.56l-2.2.07V142c2.88,0,4.5-1.19,5.33-1.19.54,0,.76.29.76,1.7l5.5-1.66c2.88,0,5.11,1.37,5.11,6.23v10.61c0,.62,0,.83.29.87l2.2.29Z"/><path class="cls-2" d="M611.83,158.25v.54a8.08,8.08,0,0,0-4.65,1.12,1.52,1.52,0,0,1-1.44-1.66v-1.4a5.14,5.14,0,0,1-4.61,3.06c-4.24,0-5.43-4.47-3.09-7.13l.58-.58,7.12-2.23v-3.85c0-1.66-.18-3-.79-3.6-1.12-1.11-3.13-.79-4.35,0a3.65,3.65,0,0,0-2,2.81s.28-.65,1.44-.65a1.63,1.63,0,0,1,1.58,1.73,1.66,1.66,0,0,1-1.77,1.69,2.25,2.25,0,0,1-2-1.55,4.19,4.19,0,0,1,1.7-4.32,6.24,6.24,0,0,1,3.81-1.36c5.22-.36,5.76,3.09,5.76,5v9.11c0,1.37.29,3.31.58,3.31Zm-6.09-7.49L600,152.53c-1.4,3,.58,5.11,2.19,5.4,1,.18,3.53,0,3.53-3.53Z"/></svg>